<?xml version="1.0" encoding="UTF-8"?>
<svg width="636px" height="522px" viewBox="0 0 636 522" version="1.1" xmlns="http://www.w3.org/2000/svg" xmlns:xlink="http://www.w3.org/1999/xlink">
    <!-- Generator: Sketch 54.1 (76490) - https://sketchapp.com -->
    <title>Group 35</title>
    <desc>Created with Sketch.</desc>
    <defs>
        <linearGradient x1="37.5478882%" y1="42.3082202%" x2="36.1481855%" y2="57.725199%" id="linearGradient-1">
            <stop stop-color="#C2CEEF" offset="0%"></stop>
            <stop stop-color="#E7E5ED" stop-opacity="0" offset="100%"></stop>
        </linearGradient>
        <linearGradient x1="76.4899568%" y1="12.1339116%" x2="44.7541272%" y2="87.3646615%" id="linearGradient-2">
            <stop stop-color="#5965E6" offset="0%"></stop>
            <stop stop-color="#5F6BE7" stop-opacity="0" offset="100%"></stop>
        </linearGradient>
        <linearGradient x1="50%" y1="11.860388%" x2="50%" y2="100%" id="linearGradient-3">
            <stop stop-color="#EABA97" offset="0%"></stop>
            <stop stop-color="#EABA97" offset="100%"></stop>
        </linearGradient>
        <linearGradient x1="50%" y1="11.860388%" x2="50%" y2="100%" id="linearGradient-4">
            <stop stop-color="#EABA97" offset="0%"></stop>
            <stop stop-color="#EABA97" offset="100%"></stop>
        </linearGradient>
        <linearGradient x1="50%" y1="34.3398087%" x2="36.0766348%" y2="70.7842798%" id="linearGradient-5">
            <stop stop-color="#E4DBFC" offset="0%"></stop>
            <stop stop-color="#5E42BF" offset="100%"></stop>
        </linearGradient>
        <linearGradient x1="50%" y1="13.6449839%" x2="54.40955%" y2="100%" id="linearGradient-6">
            <stop stop-color="#2563FF" offset="0%"></stop>
            <stop stop-color="#638BF3" offset="100%"></stop>
        </linearGradient>
        <linearGradient x1="50%" y1="13.6449839%" x2="52.4389326%" y2="100%" id="linearGradient-7">
            <stop stop-color="#2563FF" offset="0%"></stop>
            <stop stop-color="#638BF3" offset="100%"></stop>
        </linearGradient>
        <linearGradient x1="50%" y1="11.860388%" x2="50%" y2="100%" id="linearGradient-8">
            <stop stop-color="#EABA97" offset="0%"></stop>
            <stop stop-color="#EABA97" offset="100%"></stop>
        </linearGradient>
        <linearGradient x1="50%" y1="12.3268367%" x2="45.7359776%" y2="100%" id="linearGradient-9">
            <stop stop-color="#E4DBFC" offset="0%"></stop>
            <stop stop-color="#9580DD" offset="100%"></stop>
        </linearGradient>
        <linearGradient x1="50%" y1="11.860388%" x2="50%" y2="100%" id="linearGradient-10">
            <stop stop-color="#EABA97" offset="0%"></stop>
            <stop stop-color="#EABA97" offset="100%"></stop>
        </linearGradient>
        <linearGradient x1="17.6221905%" y1="27.7777778%" x2="45.9752949%" y2="72.2222222%" id="linearGradient-11">
            <stop stop-color="#E4DBFC" offset="0%"></stop>
            <stop stop-color="#9580DD" offset="100%"></stop>
        </linearGradient>
        <linearGradient x1="50%" y1="11.860388%" x2="50%" y2="100%" id="linearGradient-12">
            <stop stop-color="#EABA97" offset="0%"></stop>
            <stop stop-color="#EABA97" offset="100%"></stop>
        </linearGradient>
        <linearGradient x1="50%" y1="11.860388%" x2="50%" y2="100%" id="linearGradient-13">
            <stop stop-color="#EABA97" offset="0%"></stop>
            <stop stop-color="#EABA97" offset="100%"></stop>
        </linearGradient>
        <linearGradient x1="50%" y1="11.860388%" x2="50%" y2="100%" id="linearGradient-14">
            <stop stop-color="#EABA97" offset="0%"></stop>
            <stop stop-color="#EABA97" offset="100%"></stop>
        </linearGradient>
        <linearGradient x1="51.2258075%" y1="96.6087714%" x2="50.4734129%" y2="13.2404745%" id="linearGradient-15">
            <stop stop-color="#C4D8FD" offset="0%"></stop>
            <stop stop-color="#4B7AEA" offset="100%"></stop>
        </linearGradient>
        <linearGradient x1="37.0482926%" y1="26.3162052%" x2="107.760517%" y2="118.347997%" id="linearGradient-16">
            <stop stop-color="#8569FE" offset="0%"></stop>
            <stop stop-color="#1F0592" offset="100%"></stop>
        </linearGradient>
        <linearGradient x1="89.8704711%" y1="58.4265464%" x2="116.477533%" y2="161.108542%" id="linearGradient-17">
            <stop stop-color="#8569FE" offset="0%"></stop>
            <stop stop-color="#593CD6" offset="100%"></stop>
        </linearGradient>
        <linearGradient x1="55.3341694%" y1="96.6087714%" x2="53.7865324%" y2="10.2448793%" id="linearGradient-18">
            <stop stop-color="#C4D8FD" offset="0%"></stop>
            <stop stop-color="#84A6F7" offset="100%"></stop>
        </linearGradient>
        <linearGradient x1="50%" y1="11.860388%" x2="50%" y2="100%" id="linearGradient-19">
            <stop stop-color="#EABA97" offset="0%"></stop>
            <stop stop-color="#EABA97" offset="100%"></stop>
        </linearGradient>
        <linearGradient x1="67.9154719%" y1="59.495571%" x2="79.8711388%" y2="175.204205%" id="linearGradient-20">
            <stop stop-color="#8569FE" offset="0%"></stop>
            <stop stop-color="#593CD6" offset="100%"></stop>
        </linearGradient>
        <linearGradient x1="50%" y1="11.860388%" x2="50%" y2="100%" id="linearGradient-21">
            <stop stop-color="#EABA97" offset="0%"></stop>
            <stop stop-color="#EABA97" offset="100%"></stop>
        </linearGradient>
        <linearGradient x1="50%" y1="11.860388%" x2="50%" y2="100%" id="linearGradient-22">
            <stop stop-color="#EABA97" offset="0%"></stop>
            <stop stop-color="#EABA97" offset="100%"></stop>
        </linearGradient>
        <linearGradient x1="0.0445997572%" y1="50.0116542%" x2="99.9853373%" y2="50.0116542%" id="linearGradient-23">
            <stop stop-color="#007BC3" offset="0%"></stop>
            <stop stop-color="#0275B9" offset="22%"></stop>
            <stop stop-color="#0966A0" offset="60%"></stop>
            <stop stop-color="#12517D" offset="100%"></stop>
        </linearGradient>
        <radialGradient cx="28.143663%" cy="33.6822531%" fx="28.143663%" fy="33.6822531%" r="55.67092%" gradientTransform="translate(0.281437,0.336823),scale(1.000000,0.788890),translate(-0.281437,-0.336823)" id="radialGradient-24">
            <stop stop-color="#B7D433" offset="0%"></stop>
            <stop stop-color="#B1D234" offset="12%"></stop>
            <stop stop-color="#A0CC37" offset="29%"></stop>
            <stop stop-color="#85C23C" offset="47%"></stop>
            <stop stop-color="#5FB543" offset="67%"></stop>
            <stop stop-color="#3EA949" offset="82%"></stop>
            <stop stop-color="#49A64B" offset="100%"></stop>
        </radialGradient>
        <linearGradient x1="-0.00988692577%" y1="50.0105263%" x2="99.9817866%" y2="50.0105263%" id="linearGradient-25">
            <stop stop-color="#338947" offset="0%"></stop>
            <stop stop-color="#1A622A" offset="41%"></stop>
            <stop stop-color="#074414" offset="79%"></stop>
            <stop stop-color="#00390C" offset="100%"></stop>
        </linearGradient>
        <radialGradient cx="69.7447431%" cy="60.414232%" fx="69.7447431%" fy="60.414232%" r="49.5353385%" gradientTransform="translate(0.697447,0.604142),scale(0.942419,1.000000),translate(-0.697447,-0.604142)" id="radialGradient-26">
            <stop stop-color="#FFC60B" offset="0%"></stop>
            <stop stop-color="#FCBC0E" offset="15%"></stop>
            <stop stop-color="#F5A315" offset="39%"></stop>
            <stop stop-color="#E97921" offset="70%"></stop>
            <stop stop-color="#E05A2A" offset="90%"></stop>
            <stop stop-color="#DD5330" offset="100%"></stop>
        </radialGradient>
        <linearGradient x1="84.3056513%" y1="27.7911996%" x2="37.6057274%" y2="57.1735575%" id="linearGradient-27">
            <stop stop-color="#CA2022" offset="0%"></stop>
            <stop stop-color="#C7371F" offset="58%"></stop>
            <stop stop-color="#C6421D" offset="100%"></stop>
        </linearGradient>
        <radialGradient cx="69.3935148%" cy="32.9767722%" fx="69.3935148%" fy="32.9767722%" r="48.9642279%" gradientTransform="translate(0.693935,0.329768),scale(0.997566,1.000000),translate(-0.693935,-0.329768)" id="radialGradient-28">
            <stop stop-color="#C7EAFB" offset="0%"></stop>
            <stop stop-color="#BDE5FA" offset="11%"></stop>
            <stop stop-color="#A4D9F7" offset="29%"></stop>
            <stop stop-color="#79C5F2" offset="52%"></stop>
            <stop stop-color="#40AAEB" offset="80%"></stop>
            <stop stop-color="#1093E5" offset="100%"></stop>
        </radialGradient>
        <linearGradient x1="50%" y1="0%" x2="50%" y2="100%" id="linearGradient-29">
            <stop stop-color="#C1E3FF" offset="0%"></stop>
            <stop stop-color="#6F88FC" offset="100%"></stop>
        </linearGradient>
        <linearGradient x1="68.3652878%" y1="0%" x2="68.3652878%" y2="109.293916%" id="linearGradient-30">
            <stop stop-color="#D7E8FF" offset="0%"></stop>
            <stop stop-color="#FFFFFF" offset="100%"></stop>
        </linearGradient>
    </defs>
    <g id="Page-1" stroke="none" stroke-width="1" fill="none" fill-rule="evenodd">
        <g id="About-Us-Page-Design---weDevs" transform="translate(-310.000000, -1369.000000)">
            <g id="Group-35" transform="translate(280.273595, 1341.054829)">
                <polygon id="Fill-1" fill="url(#linearGradient-1)" opacity="0.398149182" points="506.373932 262.945171 506.373932 557.945171 498.962189 557.945171 498.962189 319.153809 485.989786 319.153809 485.989786 295.487014 458.197603 295.487014 458.197603 265.90352 448.931072 265.90352 448.931072 295.487014 422.991824 295.487014 422.991824 319.153809 408.168339 319.153809 408.168339 557.945171 398.901807 557.945171 398.901807 289.570315 308.109809 289.570315 308.109809 557.945171 298.843278 557.945171 298.843278 310.277281 217.314106 310.277281 217.314106 557.945171 208.05128 557.945171 208.05128 289.570315 178.404309 289.570315 178.404309 271.820219 126.522108 271.820219 126.522108 289.570315 117.255577 289.570315 117.255577 557.945171 107.992751 557.945171 107.992751 332.466381 35.7264047 332.466381 35.7264047 557.945171 665.726405 557.945171 665.726405 370.924922 628.66769 370.924922 628.66769 359.091525 619.401159 359.091525 619.401159 370.924922 613.844204 370.924922 613.844204 351.695652 604.577673 351.695652 604.577673 370.924922 584.19538 370.924922 584.19538 557.945171 576.78549 557.945171 576.78549 283.652137"></polygon>
                <path d="M52.5957836,155.923999 C55.0804278,137.987146 61.1073067,121.481724 69.7726448,107.02668 L103.582111,276.754106 C67.0530465,251.091715 45.8117438,204.898544 52.5957836,155.923999 Z M255.158865,176.426133 C253.70678,186.908858 248.070536,198.504931 240.527734,214.70238 L222.890754,253.803332 L197.702848,115.997941 C204.986871,116.639907 211.615876,116.791816 211.615876,116.791816 C218.197218,116.933595 218.776298,107.133039 212.243327,106.594832 C212.243327,106.594832 192.569931,105.376249 180.005394,103.58468 C168.201081,101.90151 148.573813,97.5162375 148.573813,97.5162375 C142.150908,96.2070745 139.996594,106.186344 146.416291,107.49505 C146.416291,107.49505 152.441639,109.147517 158.857676,110.459034 L170.338631,165.388316 L132.910208,241.99971 L107.52816,103.139991 C114.821806,103.783329 121.43798,103.933409 121.43798,103.933409 C128.019322,104.075188 128.598402,94.2746315 122.068639,93.736882 C122.068639,93.736882 102.395242,92.5182987 89.8307058,90.7267296 C87.5756971,90.4051894 84.9278768,89.9676396 82.1173314,89.4768877 C108.206848,59.301016 148.173373,42.6236174 190.152461,48.6093883 C221.433891,53.069787 248.224263,69.3128825 266.835622,92.3195723 C266.32005,92.216058 265.823196,92.07188 265.290719,91.9959545 C253.492821,90.3136999 243.662692,99.5984717 242.103749,110.85261 C240.706451,120.939822 245.236223,130.295537 249.92758,141.247594 C253.37205,150.055231 257.254812,161.295315 255.158865,176.426133 Z M172.349394,181.202622 L195.932966,288.129216 C196.095693,288.759803 196.317427,289.349556 196.572602,289.914529 C183.232793,292.507053 169.215754,292.983871 154.956231,290.950615 C142.933241,289.236264 131.569165,285.846248 121.039226,281.104317 L172.349394,181.202622 Z M286.530006,131.062865 C293.827753,150.062743 296.56208,171.064584 293.584298,192.561436 C287.265658,238.176224 256.822505,274.453327 216.793922,290.606536 L269.994643,186.834648 C279.55283,170.211316 283.870008,156.439263 285.607199,143.898333 C286.237326,139.349398 286.520261,135.07749 286.530006,131.062865 Z M153.078071,308.327172 C227.03035,318.720487 295.773399,266.130644 306.319825,191.088925 C316.864873,116.057005 265.280538,46.5562514 191.32826,36.1629365 C117.372763,25.7691692 48.6232748,78.3581071 38.0782261,153.390027 C27.5318003,228.431746 79.122574,297.933404 153.078071,308.327172 Z M192.247297,29.6236521 C269.750546,40.5160234 323.829283,113.361815 312.777892,191.996547 C301.724206,270.647611 229.662284,325.758828 152.159035,314.866456 C74.6493468,303.97318 20.5793499,231.135279 31.6330361,152.484214 C42.684427,73.8494821 114.737609,18.7303758 192.247297,29.6236521 Z" id="Combined-Shape-Copy" fill="url(#linearGradient-2)" opacity="0.114408482" transform="translate(171.005776, 172.994443) rotate(-13.000000) translate(-171.005776, -172.994443) "></path>
                <path d="M544.621276,511.574801 C553.936814,509.09861 559.062487,504.950462 559.062487,502.135647 C559.062487,490.177975 466.289936,481.945171 351.844935,481.945171 C237.399933,481.945171 144.648651,491.659457 144.648651,503.617129 C144.648651,506.685912 150.816473,509.627711 161.897284,512.273213 C128.676119,516.230885 108.726405,521.225594 108.726405,526.664748 C108.726405,539.511309 219.534518,549.945171 356.226215,549.945171 C492.917913,549.945171 603.726026,539.532473 603.726026,526.664748 C603.832368,520.950462 581.543135,515.680621 544.621276,511.574801 Z" id="Path" fill="#7D9CFF" fill-rule="nonzero" opacity="0.226491815" style="mix-blend-mode: multiply;"></path>
                <ellipse id="Oval" fill="#7D9CFF" fill-rule="nonzero" opacity="0.16296875" style="mix-blend-mode: multiply;" cx="268.226405" cy="512.945171" rx="41.5" ry="5"></ellipse>
                <path d="M534.726405,518.945171 C534.726405,521.713411 501.159228,523.945171 459.726405,523.945171 C418.293582,523.945171 384.726405,521.799248 384.726405,518.945171 C384.726405,516.091094 418.357357,513.945171 459.726405,513.945171 C501.095452,513.945171 534.726405,516.091094 534.726405,518.945171 Z" id="Path" fill="#7D9CFF" fill-rule="nonzero" opacity="0.16296875" style="mix-blend-mode: multiply;"></path>
                <ellipse id="Oval" fill="url(#linearGradient-3)" transform="translate(370.715408, 159.785623) rotate(-65.680000) translate(-370.715408, -159.785623) " cx="370.715408" cy="159.785623" rx="24.5320673" ry="19.6351232"></ellipse>
                <polygon id="Path" fill="url(#linearGradient-4)" points="334.75599 247.945171 327.726405 264.986241 333.324038 269.945171 338.726405 261.603242"></polygon>
                <path d="M306.590742,288.851021 C314.71209,276.884309 328.681621,260.945171 328.681621,260.945171 L338.726405,266.146814 C338.726405,266.146814 324.512495,295.259234 315.871821,306.585392 C315.303662,307.345054 314.679279,307.706981 313.972698,307.856117 C313.375747,308.975903 312.375314,309.742437 310.80368,309.900805 C307.708279,310.212646 303.331147,308.855743 298.465397,306.612805 L297.726405,306.543443 L297.835739,306.31893 C282.501258,299.075253 262.726405,283.504598 262.726405,283.504598 L265.69735,266.291504 L273.005443,260.945171 L306.590742,288.851021 Z" id="Combined-Shape" fill="url(#linearGradient-5)" fill-rule="nonzero"></path>
                <path d="M312.726405,172.945171 L422.726405,520.945171" id="Path" stroke="#393650" stroke-width="3.5"></path>
                <path d="M394.726405,172.945171 L504.726405,519.945171" id="Path" stroke="#393650" stroke-width="3.5"></path>
                <path d="M265.726405,221.370601 C265.726405,221.370601 264.449646,213.894988 259.611401,218.375984 C254.773157,222.85698 260.529772,230.485602 262.635304,228.671346" id="Path" fill="#FAA2C0" fill-rule="nonzero"></path>
                <path d="M440.154783,415.945171 L437.203181,425.784803 C437.203181,425.784803 423.183075,445.485741 426.134676,447.761427 C429.086278,450.037113 449.726405,430.422868 449.726405,430.422868 L445.341168,418.957746 L440.154783,415.945171 Z" id="Path" fill="#08023A" fill-rule="nonzero"></path>
                <path d="M363.726405,332.945171 L444.726405,320.945171" id="Path" stroke="#393650" stroke-width="3.5"></path>
                <path d="M352.726405,294.945171 L434.726405,282.945171" id="Path" stroke="#393650" stroke-width="3.5"></path>
                <path d="M258.397534,493.825408 C256.667125,497.40301 255.160812,501.073375 253.886367,504.817561 C253.236845,507.308142 254.614462,509.872622 257.127399,510.850849 L273.770538,517.421346 C276.704986,518.578415 285.442633,517.772599 283.427938,515.458462 C282.114006,513.929478 276.858278,510.685553 273.420156,507.792881 C263.478071,499.321485 267.332271,491.945171 267.332271,491.945171 L258.397534,493.825408 Z" id="Path" fill="#08023A" fill-rule="nonzero"></path>
                <path d="M301.978013,424.147094 C300.866293,430.753875 298.812173,437.179954 295.869395,443.228469 L266.205844,500.945171 L256.726405,497.610428 C256.726405,497.610428 267.796498,442.865068 273.019863,429.205448 C276.497542,420.110969 280.346832,415.451167 282.531313,413.352293 C275.177865,403.097683 267.637235,387.42803 262.496203,369.549138 C260.086871,360.254891 260.138337,350.496077 262.645562,341.227616 C262.645562,341.227616 277.965556,329.779848 285.988282,340.589265 C294.011009,351.398681 310.419191,398.977136 304.444821,419.319266 C303.814066,421.466921 302.979728,423.06124 301.978013,424.147094 Z" id="Combined-Shape" fill="url(#linearGradient-6)" fill-rule="nonzero"></path>
                <path d="M244.884074,496.587957 C243.928118,500.579582 243.210015,504.624693 242.733574,508.701838 C242.596911,511.36238 244.427951,513.72073 247.034574,514.24146 L264.38911,517.841136 C267.44282,518.487785 275.70074,515.987411 273.29218,514.004355 C271.722315,512.689504 266.001985,510.361569 262.131084,508.033635 C250.840959,501.265381 253.098984,492.945171 253.098984,492.945171 L244.884074,496.587957 Z" id="Path" fill="#08023A" fill-rule="nonzero"></path>
                <path d="M266.415893,418.112253 C266.995602,425.059186 266.763513,432.055189 265.720323,438.960093 L256.136044,501.945171 L243.399889,501.945171 C243.399889,501.945171 239.754861,444.686009 240.977018,430.23286 C241.273788,424.662527 243.458477,419.442234 247.055974,415.350314 C239.377062,399.735264 235.642761,369.327921 237.00082,356.969071 C239.010167,339.367647 246.011152,340.24451 246.011152,340.24451 C246.011152,340.24451 263.989514,334.769462 268.177415,346.297005 C272.034534,356.914044 276.878449,400.658083 266.415893,418.112253 Z" id="Combined-Shape" fill="url(#linearGradient-7)" fill-rule="nonzero"></path>
                <path d="M408.032297,385.945171 C408.032297,385.945171 416.500023,390.591065 418.333242,394.509031 C420.166461,398.426996 415.168757,400.931925 412.004271,402.430601 C408.839786,403.929276 396.596503,412.086352 396.727447,409.410146 C396.858391,406.73394 406.15543,393.31009 406.15543,393.31009 L404.562276,386.715918 L408.032297,385.945171 Z" id="Path" fill="#08023A" fill-rule="nonzero"></path>
                <path d="M263.617585,227.945171 C263.617585,227.945171 265.465783,246.658251 255.726405,256.468378 L274.561407,262.945171 C274.561407,262.945171 275.246694,242.481036 278.361634,239.928293 C281.476573,237.375551 263.617585,227.945171 263.617585,227.945171 Z" id="Path" fill="url(#linearGradient-8)"></path>
                <path d="M257.967911,254.949752 C260.979859,255.226152 263.652433,257.075903 277.057723,259.414669 C278.733384,259.71233 284.184586,268.45081 284.842124,270.045423 C292.117464,287.373553 294.726405,351.859708 294.726405,351.859708 C294.726405,351.859708 256.546781,364.000029 237.817554,353.985859 C237.817554,353.985859 236.502478,335.063116 243.862661,291.370716 C246.641289,274.722955 247.744256,265.325368 250.438041,260.902975 C251.307688,259.393407 256.080141,254.77966 257.967911,254.949752 Z" id="Path" fill="url(#linearGradient-9)" fill-rule="nonzero"></path>
                <path d="M265.726405,285.945171 C265.726405,285.945171 267.948712,308.939257 292.726405,328.945171 L290.96102,307.455767 L265.726405,285.945171 Z" id="Path" fill="#002069" fill-rule="nonzero" opacity="0.113225446" style="mix-blend-mode: multiply;"></path>
                <ellipse id="Oval" fill="url(#linearGradient-10)" transform="translate(276.774708, 225.933923) rotate(-24.530000) translate(-276.774708, -225.933923) " cx="276.774708" cy="225.933923" rx="21.1046354" ry="26.3862688"></ellipse>
                <path d="M265.191611,218.502725 C266.942815,216.416753 269.61665,215.42298 272.250742,215.879087 C276.477767,216.753633 295.731866,214.589132 299.726405,203.198173 C297.845991,203.910248 295.885961,204.373067 293.89311,204.575583 C293.89311,204.575583 298.838729,202.739037 299.240297,199.306445 C296.583055,200.289029 293.776928,200.77037 290.955328,200.727582 C292.610948,200.0773 293.893043,198.686707 294.442623,196.945171 C294.442623,196.945171 290.004247,200.246581 286.664898,199.831172 C283.325548,199.415763 271.384202,197.273126 263.41626,201.864491 C255.448318,206.455857 251.073347,210.609949 250.735185,221.104498 C250.397023,231.599048 259.907829,226.220591 265.191611,218.502725 Z" id="Path" fill="#393650" fill-rule="nonzero"></path>
                <path d="M274.726405,215.172707 C274.726405,215.172707 261.708737,216.129017 263.595663,231.47156 C264.259619,235.733633 263.555754,240.092691 261.581528,243.945171 C261.581528,243.945171 244.620398,228.831312 253.100963,211.139573 C259.758207,197.43939 274.726405,215.172707 274.726405,215.172707 Z" id="Path" fill="#393650" fill-rule="nonzero"></path>
                <path d="M274.872199,426.304267 C278.504909,419.079079 280.589956,416.436237 283.061919,414.15572 C278.890671,408.70586 275.404263,402.772632 272.679676,396.487044 L278.526405,365.945171 L287.726405,418.333115 C273.732947,432.911371 270.723601,441.777679 264.726405,464.945171 C268.466592,449.301253 271.454442,433.124504 274.872199,426.304267 Z" id="Path" fill="#6018CF" fill-rule="nonzero" opacity="0.38" style="mix-blend-mode: multiply;"></path>
                <path d="M305.320551,302.746103 C318.672323,301.054729 343.261653,302.567712 343.261653,302.567712 L347.726405,313.896875 C347.726405,313.896875 315.835319,320.707345 301.526852,320.945171 C300.08386,320.945171 299.277463,320.267924 298.542653,319.231133 C285.011852,314.068483 260.726405,283.197871 260.726405,283.197871 L267.469602,266.695671 L275.68988,262.945171 L305.320551,302.746103 Z" id="Combined-Shape" fill="url(#linearGradient-11)" fill-rule="nonzero"></path>
                <path d="M342.831565,305.09721 C345.09539,302.469612 347.556208,300.017174 350.192785,297.761058 C351.665029,297.027443 349.456663,302.162749 352.295991,301.429134 C355.135318,300.695519 358.163934,294.826598 361.844544,297.761058 C366.766046,301.659699 364.789032,309.477941 360.3723,310.211556 C355.955568,310.945171 342.726405,310.945171 342.726405,310.945171 L342.831565,305.09721 Z" id="Path" fill="url(#linearGradient-12)"></path>
                <path d="M332.726405,202.574599 C332.726405,202.574599 324.444769,189.945171 319.480067,189.945171 C315.927738,189.945171 316.355729,195.52419 317.746702,198.507841 C318.34589,199.774871 320.913839,200.551438 322.197814,201.184953 L329.40947,204.945171 L332.726405,202.574599 Z" id="Path" fill="url(#linearGradient-13)"></path>
                <path d="M412.726405,486.945171 L489.726405,474.945171" id="Path" stroke="#393650" stroke-width="3.5"></path>
                <path d="M314.726405,146.601265 C314.726405,146.601265 302.750041,127.170936 300.866832,129.07673 C299.914648,130.040579 304.104259,135.188411 304.442814,138.079959 C304.519363,140.106508 304.767172,142.122226 305.183402,144.104018 C305.911048,146.698205 308.054732,148.599201 310.642592,148.945171 L314.726405,146.601265 Z" id="Path" fill="url(#linearGradient-14)"></path>
                <path d="M396.726405,447.945171 L475.726405,432.945171" id="Path" stroke="#393650" stroke-width="3.5"></path>
                <path d="M387.726405,408.945171 L464.726405,396.945171" id="Path" stroke="#393650" stroke-width="3.5"></path>
                <path d="M377.726405,370.945171 L454.726405,358.945171" id="Path" stroke="#393650" stroke-width="3.5"></path>
                <path d="M338.726405,256.945171 L417.726405,244.945171" id="Path" stroke="#393650" stroke-width="3.5"></path>
                <path d="M328.726405,218.945171 L405.726405,206.945171" id="Path" stroke="#393650" stroke-width="3.5"></path>
                <path d="M426.018895,330.988179 C430.313941,334.598214 435.21963,339.802069 436.381853,345.444846 C438.546844,355.312668 447.726405,423.443546 447.726405,423.443546 L437.1396,424.945171 C437.1396,424.945171 414.708105,365.618743 407.885869,336.564868 C406.908911,334.93123 406.166951,332.817704 405.770573,330.186289 C403.514532,315.209208 400.726405,258.022043 400.726405,258.022043 L420.392278,240.945171 C427.752663,244.141925 433.374094,250.395193 435.801469,258.086322 C439.674344,270.663424 430.408301,318.102948 426.018895,330.988179 Z" id="Combined-Shape" fill="url(#linearGradient-15)" fill-rule="nonzero"></path>
                <path d="M350.003596,175.326461 C350.441821,175.565966 350.831483,175.799342 351.160675,176.019066 C359.752775,181.735121 397.726405,199.775756 397.726405,199.775756 L378.923089,216.945171 C378.923089,216.945171 350.078532,202.639548 338.552891,186.911383 C329.792539,176.497573 309.726405,150.515513 309.726405,150.515513 L315.814853,142.945171 L349.995612,175.273728 C349.995612,175.273728 349.998388,175.291677 350.003596,175.326461 Z" id="Combined-Shape" fill="url(#linearGradient-16)" fill-rule="nonzero"></path>
                <polygon id="Path" fill="#227DFB" fill-rule="nonzero" opacity="0.295753348" style="mix-blend-mode: multiply;" points="426.726405 278.945171 405.123493 321.945171 403.726405 304.10258"></polygon>
                <path d="M361.236083,252.863946 C350.513559,246.273513 328.726405,203.435419 328.726405,203.435419 L333.180058,198.945171 L366.165116,229.675481 C370.866917,214.375897 377.303413,189.945171 377.303413,189.945171 L397.726405,204.906532 C397.726405,204.906532 387.280895,238.462729 372.218939,250.709672 C365.406043,256.249267 362.336384,255.671116 361.236083,252.863946 Z" id="Combined-Shape" fill="url(#linearGradient-17)" fill-rule="nonzero"></path>
                <path d="M385.285885,320.405515 C386.205832,321.632025 387.140398,322.953049 388.078476,324.372825 C396.40807,336.97961 412.726405,386.745479 412.726405,386.745479 L405.824133,389.945171 C405.824133,389.945171 366.519527,342.461748 359.105976,322.559666 C358.11041,319.882351 359.182389,317.252573 361.052525,314.93692 C361.361143,314.238043 361.72718,313.518682 362.154297,312.78017 C369.687962,299.753993 402.916055,253.756638 402.916055,253.756638 L428.610482,252.945171 C432.286259,260.076254 432.73157,268.475069 429.83102,275.965203 C425.851786,286.017177 400.467505,308.692502 385.285885,320.405515 Z" id="Combined-Shape" fill="url(#linearGradient-18)" fill-rule="nonzero"></path>
                <path d="M374.845809,161.052767 L385.149051,158.945171 C385.149051,158.945171 385.149051,174.288471 394.654894,183.878033 C404.160736,193.467596 377.867534,190.516961 377.867534,190.516961 L372.726405,171.358912 L374.845809,161.052767 Z" id="Path" fill="url(#linearGradient-19)"></path>
                <path d="M376.726405,188.9109 L392.155075,182.945171 C392.155075,182.945171 414.20504,182.945171 437.726405,267.125865 C437.726405,267.125865 429.63371,276.820174 388.476577,273.091594 L376.726405,214.243941 L376.726405,188.9109 Z" id="Path" fill="url(#linearGradient-20)" fill-rule="nonzero"></path>
                <polygon id="Path" fill="#6018CF" fill-rule="nonzero" opacity="0.163063616" style="mix-blend-mode: multiply;" points="395.726405 216.945171 387.914967 269.945171 381.726405 239.554768"></polygon>
                <path d="M385.419553,160.337233 C384.992301,155.243933 378.77578,154.574898 373.755566,153.862699 C366.043662,152.913101 351.367546,151.877175 350.021701,145.855859 C346.924122,132.021937 368.88489,126.086948 383.625094,135.561349 C395.011367,142.877573 404.731357,154.423825 390.973833,173.653192 C390.973833,173.653192 389.115286,176.976786 388.474407,172.962575 C388.153968,170.588579 385.71863,163.8119 385.419553,160.337233 Z" id="Path" fill="#393650" fill-rule="nonzero"></path>
                <path d="M382.726405,139.040484 C382.726405,139.040484 388.642954,126.731984 396.99573,134.537888 C404.869962,141.922988 402.303224,152.253712 393.798183,151.938109 C385.293143,151.622507 382.726405,139.040484 382.726405,139.040484 Z" id="Path" fill="#393650" fill-rule="nonzero"></path>
                <path d="M379.726405,154.648317 C379.726405,154.648317 382.714428,147.559814 386.621843,152.997268 C390.529259,158.434723 382.944276,164.708708 381.266386,162.485296" id="Path" fill="url(#linearGradient-21)"></path>
                <path d="M265.726405,220.078013 C265.726405,220.078013 261.399759,214.921728 258.414373,220.643681 C255.428987,226.365635 263.043884,231.782998 264.406778,229.346273" id="Path" fill="url(#linearGradient-21)"></path>
                <path d="M335.666632,239.977153 C332.68989,240.765583 332.47261,250.439835 339.816689,251.846224 C347.160768,253.252613 338.643374,239.188722 335.666632,239.977153 Z" id="Path" fill="url(#linearGradient-22)"></path>
                <g id="Logo-icon-2" opacity="0.85" transform="translate(217.726405, 96.945171)" fill-rule="nonzero">
                    <g id="Logo-icon">
                        <path d="M17.7619154,25.5549255 C17.7619154,25.5549255 14.9093389,8.07444335 30.9713953,5.96783362 C30.9713953,5.96783362 44.3486738,4.08015562 49.3546658,20.9768198 C49.3500047,20.9962804 29.2607816,22.4850161 17.7619154,25.5549255 Z" id="Shape" fill="url(#linearGradient-23)"></path>
                        <path d="M49.3500047,20.9962804 C49.3500047,20.9962804 5.36346214,22.2028375 1.53206042,36.7982859 C1.53206042,36.7982859 -8.03246065,56.7745897 21.4022131,83.0172061 C21.4022131,83.0172061 34.5044883,91.3122859 44.362657,79.9424316 C44.362657,79.9424316 27.4383022,62.739263 21.845015,51.8315978 C21.845015,51.8315978 37.1473165,34.9933155 51.2796888,27.9242533 C50.8298616,25.5609643 50.1842068,23.2429272 49.3500047,20.9962804 Z" id="Shape" fill="url(#radialGradient-24)"></path>
                        <path d="M21.7005218,52.0845856 C21.7005218,52.0845856 9.77749794,64.9869621 19.7149048,76.5125012 C19.7149048,76.5125012 29.4285802,86.4228107 41.3516041,77.8942037 C41.346943,77.9185294 27.2192318,60.6131927 21.7005218,52.0845856 Z" id="Shape" fill="url(#linearGradient-25)"></path>
                        <path d="M27.3683861,46.2512714 C27.3683861,46.2512714 48.6321995,59.9953187 60.9980253,59.6888143 C66.7944468,49.1075789 70.8261701,37.5752105 72.9210491,25.5841164 C72.9210491,25.5841164 87.0487603,30.1962781 86.6106195,46.1685638 C86.6106195,46.1685638 88.2326727,58.4627966 73.6574986,76.8919829 C73.6574986,76.8919829 64.0883164,88.5683416 54.5237954,86.5736303 C54.5237954,86.5736303 35.832894,77.5828341 21.7051828,52.0845856 C23.4862716,50.0304858 25.3770127,48.0829506 27.3683861,46.2512714 Z" id="Shape" fill="url(#radialGradient-26)"></path>
                        <path d="M72.4782472,29.5005617 C72.4782472,29.5005617 84.4152542,34.5700475 83.2965968,47.2680876 C83.2965968,47.2680876 80.7936008,64.6658622 60.9234481,60.2872277 C60.9234481,60.2629019 70.0498283,39.177344 72.4782472,29.5005617 Z" id="Shape" fill="url(#linearGradient-27)"></path>
                        <path d="M13.7207654,26.8831113 C13.7207654,26.8831113 10.3647931,9.76265022 25.82091,2.99522728 C25.82091,2.99522728 30.2396069,0.231822374 47.3084549,0.0761375904 C47.3084549,0.0761375904 66.2976649,-0.692556029 72.7718948,12.0541356 C72.7718948,12.0541356 78.8033228,26.3820009 60.9234481,60.2580368 L58.863254,59.8396339 C58.863254,59.8396339 57.4089993,59.5671855 53.2699668,58.5357738 C53.2699668,58.5357738 54.8174429,26.0414404 46.096576,14.5207664 C46.096576,14.5207664 40.0371816,4.03636927 28.6548422,6.45921372 C28.6548422,6.45921372 16.1212178,10.3513333 17.7805597,25.5549255 C17.7619154,25.5549255 17.2538585,25.768992 13.7207654,26.8831113 Z" id="Shape" fill="url(#radialGradient-28)"></path>
                    </g>
                </g>
                <g id="Group-3-Copy" transform="translate(158.726405, 420.945171)">
                    <path d="M21.3317808,75.477216 C30.1575445,59.8560092 44.9704856,40.2595606 31.7630485,42.5785679 C18.5556113,44.8975751 26.3528816,35.6961952 35.2812867,26.981779 C44.2103852,18.2680604 28.033286,21.7270369 30.9745137,18.9287402 C33.9157414,16.1311412 40.2885171,-2.20882957 32.7721233,0.221104936 C25.255036,2.65173709 22.3103406,2.96986805 21.3317808,15.1390749 C20.3532209,27.3089795 13.816774,36.5452421 14.3070942,22.5572471 C14.7967209,8.56925201 4.83011308,9.12388823 6.79070039,24.5448679 C8.75128771,39.9658476 15.1233699,61.8806058 7.11734936,56.8407416 C-0.890058181,51.8015751 -5.18781537,56.2651757 11.1189726,73.753309 C27.425067,91.2428376 21.3317808,75.477216 21.3317808,75.477216" id="Fill-1204" fill="url(#linearGradient-29)"></path>
                    <path d="M33.9642424,51.9995726 C33.8800965,51.8273477 33.6704328,51.7558188 33.4958299,51.8391534 C33.4642752,51.8544314 30.4266062,53.2815374 27.2963765,52.4718023 C30.8424274,49.2606404 33.6984815,45.5904434 33.9277792,45.2932165 C34.0455835,45.1404363 34.0161324,44.9223773 33.8618649,44.8057088 C33.7082985,44.6904292 33.4888178,44.7189018 33.3703122,44.8709876 C33.2854651,44.9821004 26.5292459,53.6669601 20.9833261,56.0482478 C21.6235366,51.4787311 27.1996087,45.3800234 27.2585109,45.3161335 C27.3889371,45.1744646 27.3791201,44.9550167 27.2360719,44.825848 C27.093725,44.6966793 26.8714395,44.7064016 26.7410132,44.8480705 C26.4892766,45.1209915 20.6642727,51.4933146 20.247049,56.3301967 C19.0612922,56.7211751 17.9491631,56.7795094 16.9941065,56.3475581 C16.9772773,56.3399191 16.9604481,56.3406136 16.9429177,56.3364468 C17.4905677,51.3544235 18.4631547,46.3536499 19.5528448,41.8049668 C19.569674,41.7966334 19.5879056,41.7903833 19.6033324,41.779272 C19.7590024,41.6646868 19.7912584,41.4473223 19.6762589,41.2931532 L19.6762589,41.2924587 C19.8866238,40.4250839 20.101196,39.574376 20.3178718,38.7451962 C20.5927486,37.6903184 20.8781437,36.6451629 21.1691484,35.6097299 C27.0572618,34.5492964 33.6592133,24.7727528 33.9418035,24.3505239 C34.0483884,24.1907991 34.0042118,23.9755179 33.842932,23.8699607 C33.680951,23.763709 33.463574,23.8074597 33.3569891,23.9671845 C33.3121113,24.0345467 30.351576,28.4214217 26.7276901,31.6471672 C26.2950397,27.6450205 30.3978563,23.1310601 30.4399293,23.0852261 C30.5703555,22.9435572 30.5598373,22.7234148 30.4167891,22.5942461 C30.273741,22.4650774 30.0521566,22.4754942 29.9217304,22.6164687 C29.7331032,22.8220275 25.3049222,27.6901601 26.0832723,32.10898 C26.0881808,32.1339804 26.1001015,32.1555085 26.1099185,32.1777311 C24.5721512,33.4596958 22.9425245,34.4847121 21.3809158,34.859718 C22.8913357,29.5749121 24.5700475,24.59775 26.1996742,20.2115695 C26.2852226,20.1907358 26.3728747,20.1657354 26.4654352,20.1337905 C30.1573391,18.8601592 33.8029627,12.3621397 33.9565291,12.0864409 C34.0497908,11.9183827 33.9880838,11.7072682 33.8183894,11.6149056 C33.6486951,11.5218486 33.4355253,11.5836551 33.3422636,11.7517134 C33.3065015,11.8149088 29.8691392,17.943478 26.5152216,19.3685006 C29.0311857,12.6836726 31.3907786,7.46136767 32.7686686,4.75576929 C32.8990949,4.49882078 32.7953148,4.18562138 32.5358648,4.05575821 C32.2764148,3.9265895 31.9601662,4.0293689 31.82974,4.28631742 C30.4174903,7.05858352 27.9492089,12.5822821 25.3476964,19.5441978 C25.2151665,19.4955859 25.1401364,19.4247515 25.1015695,19.385862 C23.722277,17.990701 25.7824505,10.6864187 27.5025341,6.11690195 C27.5705521,5.93703799 27.4786928,5.73703482 27.2970778,5.6703671 C27.1147615,5.60300492 26.9135124,5.69397859 26.8454945,5.87384254 C26.3918075,7.07941718 22.4706059,17.7163911 24.6001998,19.8719808 C24.7215103,19.9948994 24.8919058,20.110179 25.1078804,20.1893469 C22.9502379,26.0206892 20.7217724,32.8062133 18.9434879,39.8097964 C17.4421837,35.0986107 20.642535,26.522086 20.678297,26.4255567 C20.746315,26.2463872 20.6544557,26.0456896 20.4735418,25.9790219 C20.2940305,25.9123542 20.0899765,26.0019389 20.0219585,26.1818029 C19.8592764,26.6116708 16.2690488,36.2347398 18.6573916,40.9570367 C18.0059617,43.6049953 17.4225497,46.2765654 16.9352043,48.9342463 C9.4399032,38.7924191 10.5260873,17.8941717 10.5373067,17.6823628 C10.5485262,17.4906931 10.4005695,17.3274961 10.2077351,17.3163848 C10.0177054,17.3066624 9.84871231,17.4518036 9.83819407,17.6434733 C9.82557217,17.8594489 8.70432729,39.3702061 16.5698706,49.6148127 C16.6252667,49.6877305 16.7059066,49.7245366 16.7900526,49.7391202 C15.9464893,54.5336405 15.4240832,59.2670488 15.3918272,63.7032301 C13.3036051,62.6608525 11.6697711,59.7365006 11.6522407,59.7045557 C11.5596801,59.535803 11.3465104,59.4739965 11.176816,59.5663591 C11.0071217,59.6580272 10.9440122,59.8684472 11.0365727,60.0371999 C11.1165114,60.182341 12.9473872,63.4629485 15.3939309,64.46852 C15.4086564,67.0553665 15.59518,69.5338779 15.9878611,71.8589147 C9.18746533,68.1289946 3.70816108,59.0906571 3.65206378,58.9982945 C3.5538935,58.8323197 3.33791887,58.7788466 3.17173061,58.8767648 C3.00484112,58.9739886 2.95014625,59.1871864 3.04971897,59.3524668 C3.2874313,59.7496953 8.94414327,69.0838708 16.1456348,72.7304563 C16.5607548,74.8693791 17.1567887,76.8707996 17.968096,78.6895784 C18.0543456,78.8840259 18.2478813,79 18.4498316,79 C18.5199532,79 18.5928797,78.9854164 18.6615989,78.9555549 C18.9266587,78.8395808 19.0472679,78.5312426 18.9301647,78.2687384 C17.5151102,75.0929937 16.7942599,71.3262674 16.5642609,67.2803701 C16.7865465,67.3150928 17.0095333,67.3324542 17.2332213,67.3324542 C22.7195377,67.3324542 28.5108832,57.2961842 28.7745405,56.8343714 C28.8699059,56.6677021 28.8103026,56.4551987 28.6420106,56.3614472 C28.4744199,56.2670013 28.2598478,56.32603 28.1637811,56.4926993 C28.098568,56.6072845 21.7553653,67.6060697 16.5292001,66.5643865 C16.3994751,63.4955879 16.5404196,60.2795648 16.86929,57.0434025 C17.3608426,57.2385444 17.8790415,57.3343793 18.4224841,57.3343793 C19.128609,57.3343793 19.8740019,57.1760435 20.6376265,56.9059003 C20.6754921,56.8989557 20.7112542,56.88715 20.7449126,56.8697886 C22.6949951,56.1524161 24.7677905,54.6815595 26.6807086,53.0183388 C27.592991,53.3120934 28.4989625,53.4252896 29.3425257,53.4252896 C31.7736427,53.4252896 33.6949754,52.5162475 33.8029627,52.4634689 C33.9768643,52.3794398 34.0490896,52.1717976 33.9642424,51.9995726" id="Fill-1205" fill="#FFFFFF" opacity="0.375604539"></path>
                    <path d="M3.03095257,72 C3.03095257,72 1.59886915,103.246127 18.216729,101.961444 C18.216729,101.961444 32.2272668,101.150102 26.7155158,72 L3.03095257,72" id="Fill-1206" fill="url(#linearGradient-30)"></path>
                    <path d="M13,101 C14.1806958,101.700745 15.5088985,102.059156 17,101.992013 C15.667308,101.65819 14.33654,101.312073 13,101" id="Fill-1211" fill="#EFA79E"></path>
                    <path d="M26.4545,72.4915 C26.4855,72.4965 26.5155,72.5025 26.5455,72.5085 C26.5445,72.5025 26.5435,72.4965 26.5425,72.4915 L26.4545,72.4915" id="Fill-1212" fill="#EFA79E"></path>
                </g>
            </g>
        </g>
    </g>
</svg>