<?xml version="1.0" encoding="UTF-8"?>
<svg width="695px" height="439px" viewBox="0 0 695 439" version="1.1" xmlns="http://www.w3.org/2000/svg" xmlns:xlink="http://www.w3.org/1999/xlink">
    <!-- Generator: Sketch 52.3 (67297) - http://www.bohemiancoding.com/sketch -->
    <title>Group 35</title>
    <desc>Created with Sketch.</desc>
    <defs>
        <linearGradient x1="50%" y1="100%" x2="50%" y2="19.0609898%" id="linearGradient-1">
            <stop stop-color="#C6BDFC" stop-opacity="0" offset="0%"></stop>
            <stop stop-color="#9488F7" offset="100%"></stop>
        </linearGradient>
        <linearGradient x1="0.0445997572%" y1="50.0116542%" x2="99.9853373%" y2="50.0116542%" id="linearGradient-2">
            <stop stop-color="#007BC3" offset="0%"></stop>
            <stop stop-color="#0275B9" offset="22%"></stop>
            <stop stop-color="#0966A0" offset="60%"></stop>
            <stop stop-color="#12517D" offset="100%"></stop>
        </linearGradient>
        <radialGradient cx="28.143663%" cy="33.6822531%" fx="28.143663%" fy="33.6822531%" r="55.67092%" gradientTransform="translate(0.281437,0.336823),scale(1.000000,0.788890),translate(-0.281437,-0.336823)" id="radialGradient-3">
            <stop stop-color="#B7D433" offset="0%"></stop>
            <stop stop-color="#B1D234" offset="12%"></stop>
            <stop stop-color="#A0CC37" offset="29%"></stop>
            <stop stop-color="#85C23C" offset="47%"></stop>
            <stop stop-color="#5FB543" offset="67%"></stop>
            <stop stop-color="#3EA949" offset="82%"></stop>
            <stop stop-color="#49A64B" offset="100%"></stop>
        </radialGradient>
        <linearGradient x1="-0.00988692577%" y1="50.0105263%" x2="99.9817866%" y2="50.0105263%" id="linearGradient-4">
            <stop stop-color="#338947" offset="0%"></stop>
            <stop stop-color="#1A622A" offset="41%"></stop>
            <stop stop-color="#074414" offset="79%"></stop>
            <stop stop-color="#00390C" offset="100%"></stop>
        </linearGradient>
        <radialGradient cx="69.7447431%" cy="60.414232%" fx="69.7447431%" fy="60.414232%" r="49.5353385%" gradientTransform="translate(0.697447,0.604142),scale(0.942419,1.000000),translate(-0.697447,-0.604142)" id="radialGradient-5">
            <stop stop-color="#FFC60B" offset="0%"></stop>
            <stop stop-color="#FCBC0E" offset="15%"></stop>
            <stop stop-color="#F5A315" offset="39%"></stop>
            <stop stop-color="#E97921" offset="70%"></stop>
            <stop stop-color="#E05A2A" offset="90%"></stop>
            <stop stop-color="#DD5330" offset="100%"></stop>
        </radialGradient>
        <linearGradient x1="117.528017%" y1="27.7911996%" x2="25.6028347%" y2="57.1735575%" id="linearGradient-6">
            <stop stop-color="#CA2022" offset="0%"></stop>
            <stop stop-color="#C7371F" offset="58%"></stop>
            <stop stop-color="#C6421D" offset="100%"></stop>
        </linearGradient>
        <radialGradient cx="69.3935148%" cy="32.9767722%" fx="69.3935148%" fy="32.9767722%" r="48.9642279%" gradientTransform="translate(0.693935,0.329768),scale(0.997566,1.000000),translate(-0.693935,-0.329768)" id="radialGradient-7">
            <stop stop-color="#C7EAFB" offset="0%"></stop>
            <stop stop-color="#BDE5FA" offset="11%"></stop>
            <stop stop-color="#A4D9F7" offset="29%"></stop>
            <stop stop-color="#79C5F2" offset="52%"></stop>
            <stop stop-color="#40AAEB" offset="80%"></stop>
            <stop stop-color="#1093E5" offset="100%"></stop>
        </radialGradient>
        <linearGradient x1="50%" y1="11.860388%" x2="50%" y2="99.8487892%" id="linearGradient-8">
            <stop stop-color="#EABA97" offset="0%"></stop>
            <stop stop-color="#D19D76" offset="100%"></stop>
        </linearGradient>
        <linearGradient x1="50%" y1="11.860388%" x2="50%" y2="100%" id="linearGradient-9">
            <stop stop-color="#EABA97" offset="0%"></stop>
            <stop stop-color="#EABA97" offset="100%"></stop>
        </linearGradient>
        <linearGradient x1="8.24996284%" y1="9.18048127%" x2="113.938187%" y2="100%" id="linearGradient-10">
            <stop stop-color="#D7BAF8" offset="0%"></stop>
            <stop stop-color="#E8D7FC" offset="100%"></stop>
        </linearGradient>
        <linearGradient x1="50%" y1="100%" x2="65.446192%" y2="14.1696728%" id="linearGradient-11">
            <stop stop-color="#FC9E91" offset="0%"></stop>
            <stop stop-color="#FF6866" offset="100%"></stop>
        </linearGradient>
        <linearGradient x1="50%" y1="100%" x2="65.446192%" y2="14.1696728%" id="linearGradient-12">
            <stop stop-color="#FDA194" offset="0%"></stop>
            <stop stop-color="#FF6866" offset="100%"></stop>
        </linearGradient>
        <linearGradient x1="50.4711254%" y1="14.4586648%" x2="100%" y2="100%" id="linearGradient-13">
            <stop stop-color="#FFA313" offset="0%"></stop>
            <stop stop-color="#FFC72A" offset="100%"></stop>
        </linearGradient>
        <linearGradient x1="50%" y1="11.860388%" x2="50%" y2="100%" id="linearGradient-14">
            <stop stop-color="#FDE1C8" offset="0%"></stop>
            <stop stop-color="#FABF97" offset="100%"></stop>
        </linearGradient>
        <linearGradient x1="50%" y1="12.3268367%" x2="36.0766348%" y2="100%" id="linearGradient-15">
            <stop stop-color="#ADE8D7" offset="0%"></stop>
            <stop stop-color="#7CD5BB" offset="100%"></stop>
        </linearGradient>
        <linearGradient x1="50%" y1="12.3268367%" x2="57.9058787%" y2="100%" id="linearGradient-16">
            <stop stop-color="#ADE8D7" offset="0%"></stop>
            <stop stop-color="#5CC4A6" offset="100%"></stop>
        </linearGradient>
        <linearGradient x1="76.3856347%" y1="8.13061579%" x2="32.1075518%" y2="87.6016011%" id="linearGradient-17">
            <stop stop-color="#57D968" offset="0%"></stop>
            <stop stop-color="#00D590" offset="100%"></stop>
        </linearGradient>
        <linearGradient x1="27.8190414%" y1="0%" x2="60.9434665%" y2="120.438515%" id="linearGradient-18">
            <stop stop-color="#D17AFF" offset="0%"></stop>
            <stop stop-color="#816DFF" offset="100%"></stop>
        </linearGradient>
        <linearGradient x1="77.2370894%" y1="12.1339116%" x2="44.6061707%" y2="87.3646615%" id="linearGradient-19">
            <stop stop-color="#5965E6" offset="0%"></stop>
            <stop stop-color="#5F6BE7" stop-opacity="0" offset="100%"></stop>
        </linearGradient>
        <linearGradient x1="14.2778775%" y1="0%" x2="50%" y2="100%" id="linearGradient-20">
            <stop stop-color="#FFD3A5" offset="0%"></stop>
            <stop stop-color="#FD6585" offset="100%"></stop>
        </linearGradient>
        <linearGradient x1="50%" y1="100%" x2="50%" y2="3.061617e-15%" id="linearGradient-21">
            <stop stop-color="#EEEEEE" stop-opacity="0" offset="0%"></stop>
            <stop stop-color="#FFFFFF" offset="100%"></stop>
        </linearGradient>
        <linearGradient x1="50%" y1="0%" x2="50%" y2="100%" id="linearGradient-22">
            <stop stop-color="#C27EFD" offset="0%"></stop>
            <stop stop-color="#3478EB" offset="100%"></stop>
        </linearGradient>
        <rect id="path-23" x="0" y="0" width="39" height="38" rx="7.56690998"></rect>
        <filter x="-191.0%" y="-135.5%" width="482.1%" height="492.1%" filterUnits="objectBoundingBox" id="filter-24">
            <feOffset dx="0" dy="23" in="SourceAlpha" result="shadowOffsetOuter1"></feOffset>
            <feGaussianBlur stdDeviation="21" in="shadowOffsetOuter1" result="shadowBlurOuter1"></feGaussianBlur>
            <feColorMatrix values="0 0 0 0 0   0 0 0 0 0   0 0 0 0 0  0 0 0 0.26 0" type="matrix" in="shadowBlurOuter1"></feColorMatrix>
        </filter>
        <linearGradient x1="0%" y1="-73.4495192%" x2="50%" y2="90.9555288%" id="linearGradient-25">
            <stop stop-color="#F0FF00" offset="0%"></stop>
            <stop stop-color="#58CFFB" stop-opacity="0.340390079" offset="100%"></stop>
        </linearGradient>
        <linearGradient x1="50%" y1="100%" x2="50%" y2="19.920919%" id="linearGradient-26">
            <stop stop-color="#EEEEEE" stop-opacity="0" offset="0%"></stop>
            <stop stop-color="#FFFFFF" offset="100%"></stop>
        </linearGradient>
        <linearGradient x1="41.5865385%" y1="16.5805288%" x2="72.9575548%" y2="98.9761916%" id="linearGradient-27">
            <stop stop-color="#7ED500" offset="0%"></stop>
            <stop stop-color="#00BF8D" stop-opacity="0.188510708" offset="100%"></stop>
        </linearGradient>
        <linearGradient x1="0%" y1="0%" x2="50%" y2="100%" id="linearGradient-28">
            <stop stop-color="#00EAEF" offset="0%"></stop>
            <stop stop-color="#0093FF" stop-opacity="0.251338505" offset="100%"></stop>
        </linearGradient>
        <linearGradient x1="50%" y1="0%" x2="50%" y2="100%" id="linearGradient-29">
            <stop stop-color="#FEBADB" offset="0%"></stop>
            <stop stop-color="#FF5DE1" offset="100%"></stop>
        </linearGradient>
        <rect id="path-30" x="0" y="0" width="54" height="54" rx="7.56690998"></rect>
        <filter x="-163.9%" y="-95.4%" width="375.9%" height="375.9%" filterUnits="objectBoundingBox" id="filter-31">
            <feOffset dx="-14" dy="23" in="SourceAlpha" result="shadowOffsetOuter1"></feOffset>
            <feGaussianBlur stdDeviation="21" in="shadowOffsetOuter1" result="shadowBlurOuter1"></feGaussianBlur>
            <feColorMatrix values="0 0 0 0 0   0 0 0 0 0   0 0 0 0 0  0 0 0 0.23 0" type="matrix" in="shadowBlurOuter1"></feColorMatrix>
        </filter>
        <linearGradient x1="22.3257212%" y1="14.7175481%" x2="100%" y2="180.066528%" id="linearGradient-32">
            <stop stop-color="#6B73FF" offset="0%"></stop>
            <stop stop-color="#000DFF" stop-opacity="0.568892045" offset="100%"></stop>
        </linearGradient>
        <linearGradient x1="50%" y1="0%" x2="36.7985125%" y2="100%" id="linearGradient-33">
            <stop stop-color="#00C6FB" offset="0%"></stop>
            <stop stop-color="#005BEA" stop-opacity="0.512674825" offset="100%"></stop>
        </linearGradient>
    </defs>
    <g id="Page-1" stroke="none" stroke-width="1" fill="none" fill-rule="evenodd">
        <g id="About-Us-Page-Design---weDevs" transform="translate(-855.000000, -828.000000)">
            <g id="Group-11" transform="translate(893.000000, 817.000000)">
                <g id="Group-35">
                    <ellipse id="Oval" fill="#9488F7" fill-rule="nonzero" opacity="0.133387277" style="mix-blend-mode: multiply;" cx="300.5" cy="435" rx="182.5" ry="15"></ellipse>
                    <path d="M107.360137,415.879941 C37.2153695,419.145479 1.00414547,355.037324 0.0330642621,316.06749 C-0.938016948,277.097655 19.6093658,262.871573 44.7404429,239.574091 C69.87152,216.27661 119.702706,222.884017 119.702706,108.750041 C119.702706,45.0438145 234.923219,-13.1913937 365.733786,21.2473264 C616.815064,87.3499207 576.138426,363.759985 523.343094,389.819963 C470.547763,415.879941 481.222439,408.932978 420.829549,407.056236 C360.436659,405.179494 243.029538,409.563952 107.360137,415.879941 Z" id="Path" fill="url(#linearGradient-1)" fill-rule="nonzero" opacity="0.12" style="mix-blend-mode: multiply;"></path>
                    <g id="Logo-icon-2-Copy" opacity="0.85" transform="translate(161.000000, 89.000000)" fill-rule="nonzero">
                        <g id="Logo-icon">
                            <path d="M35.1155109,50.5223814 C35.1155109,50.5223814 29.4759344,15.9632673 61.2308044,11.7984757 C61.2308044,11.7984757 87.6778378,8.06651456 97.5747416,41.4714138 C97.5655266,41.5098877 57.8489016,44.4531353 35.1155109,50.5223814 Z" id="Shape" fill="url(#linearGradient-2)"></path>
                            <path d="M97.5655266,41.5098877 C97.5655266,41.5098877 10.6036263,43.8952649 3.02890107,72.7506343 C3.02890107,72.7506343 -15.880267,112.244016 42.3124213,164.125971 C42.3124213,164.125971 68.21577,180.525439 87.7054828,158.047106 C87.7054828,158.047106 54.2458388,124.036244 43.1878458,102.471665 C43.1878458,102.471665 73.4406718,69.1821869 101.380534,55.2065697 C100.491221,50.5343201 99.2147536,45.9515342 97.5655266,41.5098877 Z" id="Shape" fill="url(#radialGradient-3)"></path>
                            <path d="M42.902181,102.971824 C42.902181,102.971824 19.3302258,128.479971 38.9765934,151.266094 C38.9765934,151.266094 58.1806414,170.85889 81.7525965,153.997736 C81.7433815,154.045828 53.8127341,119.832979 42.902181,102.971824 Z" id="Shape" fill="url(#linearGradient-4)"></path>
                            <path d="M54.1076139,91.4392952 C54.1076139,91.4392952 96.1464175,118.611435 120.593797,118.005472 C132.053389,97.0862479 140.024152,74.286623 144.165752,50.5800921 C144.165752,50.5800921 172.0964,59.6983888 171.23019,91.2757814 C171.23019,91.2757814 174.437008,115.581621 145.621721,152.016334 C145.621721,152.016334 126.703338,175.100629 107.79417,171.157062 C107.79417,171.157062 70.8420434,153.382155 42.911396,102.971824 C46.4326288,98.9108454 50.1706459,95.0605461 54.1076139,91.4392952 Z" id="Shape" fill="url(#radialGradient-5)"></path>
                            <path d="M143.290328,58.3229496 C143.290328,58.3229496 166.889928,68.3453812 164.678329,93.4495526 C164.678329,93.4495526 159.729877,127.845153 120.446357,119.188542 C120.446357,119.14045 138.489316,77.4540595 143.290328,58.3229496 Z" id="Shape" fill="url(#linearGradient-6)"></path>
                            <path d="M27.1261109,53.14822 C27.1261109,53.14822 20.4913151,19.3008717 51.0482358,5.92159877 C51.0482358,5.92159877 59.7840503,0.458315498 93.5293591,0.150524891 C93.5293591,0.150524891 131.071245,-1.36919123 143.870872,23.8311647 C143.870872,23.8311647 155.795075,52.157519 120.446357,119.130831 L116.37333,118.303644 C116.37333,118.303644 113.498252,117.76501 105.315337,115.725898 C105.315337,115.725898 108.374715,51.484227 91.1334606,28.7077221 C91.1334606,28.7077221 79.1539682,7.97994845 56.6509523,12.7699398 C56.6509523,12.7699398 31.8718329,20.4647049 35.1523708,50.5223814 C35.1155109,50.5223814 34.1110765,50.9455935 27.1261109,53.14822 Z" id="Shape" fill="url(#radialGradient-7)"></path>
                        </g>
                    </g>
                    <g id="Group-10" transform="translate(103.000000, 194.000000)">
                        <path d="M46.7593697,11.4891257 C46.7593697,11.4891257 55.4774904,20.225444 60.0545039,18.3689763 C64.6315173,16.5125087 63.8468864,14.2847475 57.8749737,9.04295654 C50.5517522,2.68728497 38.5207455,3.25514566 31.2411147,14.8526082 C24.9422724,24.8993743 32.6142187,42.8088268 14.1971886,61.2206177 C0.771282557,74.6527071 -4.78651944,94.549672 4.84700402,106.037931 C14.4805275,117.526189 30.4128932,130.630667 54.0607958,114.402955 C77.7086984,98.1752441 69.6226414,48.880568 63.8686817,37.4578319 C58.8640883,28.3592576 53.1428202,19.6754526 46.7593697,11.4891257 Z" id="Path" fill="#393650" fill-rule="nonzero"></path>
                        <path d="M40.9059549,36.4914385 C36.9378007,40.447562 34.8785788,45.9547646 35.2677499,51.5703074 C36.6773012,64.1980394 16.5315612,79.6051856 16.0111115,95.9315081 C15.4906618,112.257831 33.3594344,123.616224 47.2380927,117.160104 C61.116751,110.703985 63.588887,52.7083353 62.8949541,45.1798434 C62.2010212,37.6513515 53.9822532,28 53.9822532,28 L40.9059549,36.4914385 Z" id="Path" fill="#393650" fill-rule="nonzero" opacity="0.31" style="mix-blend-mode: multiply;"></path>
                        <path d="M271.238988,12.8395847 C271.238988,12.8395847 262.524454,21.5481979 257.949325,19.6976176 C253.374195,17.8470373 254.136716,13.5798168 260.127958,8.35464895 C267.448166,2.04090442 280.84676,4.63171683 288.123396,16.1924008 C294.419646,26.2073059 285.378318,44.0599629 303.787769,62.4133651 C317.229936,75.8028578 322.785451,95.6367242 313.155892,107.088551 C303.526333,118.540377 287.600524,131.603297 263.940566,115.427048 C240.280609,99.2507987 248.385124,50.112449 254.136716,38.7259373 C259.136061,29.6542911 264.855139,20.9977764 271.238988,12.8395847 Z" id="Path" fill="#393650" fill-rule="nonzero"></path>
                        <path d="M277.107109,36.4914385 C281.076779,40.447562 283.136788,45.9547646 282.747468,51.5703074 C281.337378,64.1980394 301.490815,79.6051856 301.989769,95.9315081 C302.488724,112.257831 284.634819,123.616224 270.772552,117.160104 C256.910285,110.703985 254.393817,52.7083353 255.109709,45.1798434 C255.8256,37.6513515 264.004121,28 264.004121,28 L277.107109,36.4914385 Z" id="Path" fill="#393650" fill-rule="nonzero" opacity="0.31" style="mix-blend-mode: multiply;"></path>
                        <path d="M278,27.0613508 C278,27.0613508 272.58125,45.3936834 278,54 L261,52.8803006 L261.7225,51.7606013 C262.706238,45.5774198 263.196637,39.3211886 263.18875,33.0550356 C262.80625,25.9636064 278,27.0613508 278,27.0613508 Z" id="Path" fill="url(#linearGradient-8)"></path>
                        <path d="M278.52398,33.2875749 C273.22147,41.313153 263.736105,44.3360499 257.398444,40.0571607 C251.060783,35.7782716 250.152385,25.7729089 255.47602,17.7260427 C260.799655,9.67917656 270.263895,6.65627975 276.601556,10.9564569 C282.939217,15.2566341 283.847615,25.2407087 278.52398,33.2875749 Z" id="Path" fill="url(#linearGradient-9)"></path>
                        <path d="M251.496456,52.4361464 C246.719973,52.0896191 236.740535,48.4727409 231.303022,47.1516057 L209.126494,18 L200,20.1657954 L223.455943,56.811053 C227.571394,62.8752801 254.503081,76 254.503081,76 C254.503081,76 256.806028,52.8259895 251.496456,52.4361464 Z" id="Path" fill="url(#linearGradient-10)" fill-rule="nonzero"></path>
                        <path d="M204.83033,24.8960469 C202.671669,22.5432894 200.223225,20.4934397 197.54778,18.799057 C195.910283,18.0424962 189.769671,16.9744104 190.006677,15.97308 C190.631511,13.2361101 198.62508,15.7728139 203.472932,14.5934692 C208.320783,13.4141244 208.428513,10.1431116 209.613544,11.2111974 C210.798574,12.2792832 208.924071,12.9913404 208.450059,16.2401014 C207.868317,20.2454232 208.450059,23.204911 207.351213,24.2952486 C206.665168,24.926506 205.714844,25.1529953 204.83033,24.8960469 Z" id="Path" fill="url(#linearGradient-9)"></path>
                        <path d="M274.953766,234.802682 C274.953766,234.802682 276.806379,235.683096 272.615945,238.060216 C268.42551,240.437336 263.08822,241.912031 263,245.235596 C263,246.886374 268.271126,245.785856 276.232951,242.682394 C276.232951,242.682394 282.408329,240.855533 278.945706,233.878246 C275.483084,226.900959 274.953766,234.802682 274.953766,234.802682 Z" id="Path" fill="#08023A"></path>
                        <path d="M284.690266,161.992352 C286.130101,166.031819 289.453158,176.500491 288.948287,185.833216 C288.306617,197.694696 281.67603,234 281.67603,234 L276.562117,233.868934 C276.562117,233.868934 271.759317,188.21425 272.264875,181.267748 C272.472533,178.414471 272.316044,172.852363 272.059521,167.288122 C270.170878,164.19577 268.346039,158.461537 266.591426,148.838384 C262.412156,125.982452 257,100 257,100 L280.320331,100.107811 L279.9233,100.107811 C279.9233,100.107811 289.305763,101.96216 288.992318,114.489799 C288.754686,124.071601 288.085322,151.538989 284.690266,161.992352 Z" id="Combined-Shape" fill="url(#linearGradient-11)" fill-rule="nonzero"></path>
                        <path d="M249.712469,234.689742 C249.712469,234.689742 251.601577,235.514469 247.489989,237.945245 C243.378401,240.376021 238,242.003773 238,245.28098 C238,246.908731 243.311727,245.693343 251.33488,242.43784 C251.33488,242.43784 257.491149,240.462835 253.846282,233.756498 C250.201415,227.050161 249.712469,234.689742 249.712469,234.689742 Z" id="Path" fill="#08023A"></path>
                        <path d="M250.537784,163.249186 C254.236239,167.918525 256.705629,173.417635 257.71557,179.260714 C260.15012,190.847551 257.302566,234 257.302566,234 L250.781451,234 C250.781451,234 237.057563,183.259829 235.165346,167.609607 C232.416608,161.628851 234.851865,145.213974 239.118644,130.577187 C242.29658,119.901723 246.765702,109.636534 252.430934,100 L272,104.455098 L271.600631,122.384152 C271.600631,122.384152 257.423042,152.548428 252.85249,159.893907 C252.112198,161.083653 251.338147,162.208974 250.537784,163.249186 Z" id="Combined-Shape" fill="url(#linearGradient-12)" fill-rule="nonzero"></path>
                        <path d="M249.279123,48 C249.279123,48 253.649572,48 261.144894,48.3702594 C261.144894,48.3702594 264.182357,53.1836321 276.091832,48.3702594 C279.777982,49.2831581 282.895873,51.7248258 284.657914,55.0784892 C289.159478,65.2932937 286.143867,88.4671784 287.280184,95.8723671 C288.416501,103.277556 290.579874,111.118344 287.127218,113.296341 C276.725548,119.96101 254.348844,116.846475 249.25727,110.160025 C244.165696,103.473576 249.279123,48 249.279123,48 Z" id="Path" fill="url(#linearGradient-10)" fill-rule="nonzero"></path>
                        <path d="M45.0620857,234.802682 C45.0620857,234.802682 43.186443,235.683096 47.4011225,238.060216 C51.6158021,240.437336 56.9338008,241.912031 57,245.235596 C57,246.886374 51.7482004,245.785856 43.760169,242.682394 C43.760169,242.682394 37.6036476,240.855533 41.0460037,233.878246 C44.4883597,226.900959 45.0620857,234.802682 45.0620857,234.802682 Z" id="Path" fill="#08023A"></path>
                        <path d="M63.0240505,101.043366 L67.5975725,100 C73.2461799,109.638938 77.7058054,119.903537 80.8823391,130.577187 C85.1362423,145.200038 87.5820328,161.597594 84.8423611,167.592495 C82.9753148,183.222806 69.2506262,234 69.2506262,234 L62.733886,234 C62.733886,234 59.8882427,190.847551 62.3428815,179.260714 C63.3412758,173.422609 65.8039969,167.928033 69.4988962,163.266839 C68.696257,162.221709 67.9198302,161.090386 67.1768882,159.893907 C64.8211284,156.100047 59.9137917,146.219024 55.7190258,137.550798 C54.9969013,141.312445 54.2784336,145.11686 53.5923619,148.838384 C51.8129575,158.518124 49.9619155,164.263074 48.0458268,167.3424 C47.784148,172.888506 47.6264968,178.423749 47.8428606,181.267748 C48.371332,188.21425 43.5172249,233.868934 43.5172249,233.868934 L38.3890957,234 C38.3890957,234 31.6755525,197.694696 31.0492161,185.833216 C30.5563672,176.499705 33.8931506,166.030057 35.3378356,161.991332 C31.9014155,151.537202 31.2289062,124.071289 31.0077622,114.489799 C30.6917463,101.96216 40.1300865,100.107811 40.1300865,100.107811 L39.7297997,100.107811 L63.2413793,100 C63.2413793,100 63.1652586,100.363869 63.0240505,101.043366 Z" id="Combined-Shape" fill="url(#linearGradient-13)" fill-rule="nonzero"></path>
                        <path d="M67.2937766,234.689742 C67.2937766,234.689742 65.4056761,235.514469 69.5150714,237.945245 C73.6244667,240.376021 79,242.003773 79,245.28098 C79,246.908731 73.6911055,245.693343 65.6722314,242.43784 C65.6722314,242.43784 59.497032,240.462835 63.1621683,233.756498 C66.8273047,227.050161 67.2937766,234.689742 67.2937766,234.689742 Z" id="Path" fill="#08023A"></path>
                        <path d="M42,27.0613508 C42,27.0613508 47.44,45.3936834 42,54 L59,52.8803006 L58.2775,51.7606013 C57.3050313,45.5762933 56.8217666,39.3204181 56.8325,33.0550356 C57.27875,25.9636064 42,27.0613508 42,27.0613508 Z" id="Path" fill="url(#linearGradient-14)"></path>
                        <path d="M264.296808,6.06450494 C264.296808,6.06450494 257.698021,20.0620775 266.870335,27.3081327 C276.04265,34.5541879 285.720872,35.6077686 283.873211,48.8097802 C280.243878,74.9342819 301.469978,82.6963766 303.669574,75.3858165 C305.86917,68.0752563 296.366916,52.3145487 296.366916,52.3145487 L287.810488,31.3504424 L287.986456,12.8805272 L277.890311,6 L264.296808,6.06450494 Z" id="Path" fill="#393650" fill-rule="nonzero"></path>
                        <path d="M57.7179694,50.0141515 L57.4997215,50.0141515 C57.4997215,50.0141515 53.7895079,54.8525 41.873175,50.0141515 C38.1941698,50.9369357 35.0820786,53.3897905 33.317859,56.7571892 C28.9529019,67.0249965 31.8337736,90.3191265 30.7207095,97.7627395 C29.6076454,105.206352 27.4033421,113.087825 30.873483,115.277123 C41.262081,121.976375 63.4797128,118.845679 68.6958366,112.124534 C72.4496997,107.286185 70.7691912,77.095767 69.5470032,60.4352097 C69.0591001,54.3257473 63.8204155,49.7106082 57.7179694,50.0141515 Z" id="Path" fill="url(#linearGradient-15)" fill-rule="nonzero"></path>
                        <path d="M38.47602,33.2875749 C43.7996551,41.313153 53.2638953,44.3360499 59.6015562,40.0571607 C65.939217,35.7782716 66.8476151,25.7729089 61.52398,17.7260427 C56.2003449,9.67917656 46.7361047,6.65627975 40.3984438,10.9564569 C34.060783,15.2566341 33.1523849,25.2407087 38.47602,33.2875749 Z" id="Path" fill="url(#linearGradient-14)"></path>
                        <path d="M40.8453318,7.02269051 C40.8453318,7.02269051 51.7555242,1.45383751 54.8540188,8.79663965 C57.9525134,16.1394418 54.5048926,17.5541101 47.6751122,22.4717666 C40.8453318,27.389423 35.3902356,27.389423 34.7138037,43.5570607 C34.0373717,59.7246985 29.2368871,55.5031486 29.2368871,55.5031486 C29.2368871,55.5031486 22.4071067,16.1394418 40.8453318,7.02269051 Z" id="Path" fill="#393650" fill-rule="nonzero"></path>
                        <path d="M66.6752127,77.5391091 C73.2377762,70.1625226 83.963277,60.8421053 83.963277,60.8421053 L92,64.236818 C92,64.236818 77.5270176,85.4348666 71.8042655,91.7542092 C71.419155,93.0225936 70.6425292,93.9146494 69.241191,93.9910164 C68.9850398,94.0060533 68.7170894,94.0020689 68.4382356,93.9801498 C67.8731767,94.0467911 67.350284,93.9441076 66.836742,93.6951317 C60.7757884,92.1026383 51.2757122,84.5961249 44.7124135,78.9079002 C40.1767013,74.9972818 38.1064429,68.7093328 39.3610588,62.6543518 L40.0273753,59.4301425 C43.035448,57.2446375 47.0761916,57.59485 49.7097875,60.2693203 L66.6752127,77.5391091 Z" id="Combined-Shape" fill="url(#linearGradient-16)" fill-rule="nonzero"></path>
                        <path d="M86.1386144,62.0797362 C85.9537952,59.6673702 85.9537952,57.2447324 86.1386144,54.8323663 C86.506807,53.7452608 87.9579188,57.3689458 89.0624964,55.5571033 C90.1670741,53.7452608 88.6943039,49.3968389 91.9863784,49.0344704 C96.3180555,48.5442071 99.2852543,53.4042081 97.4442915,55.9407876 C95.6033288,58.4773671 89.0408381,65 89.0408381,65 L86.1386144,62.0797362 Z" id="Path" fill="url(#linearGradient-14)"></path>
                        <path d="M225,13.9919831 C224.940471,10.60075 224.013353,7.28247821 222.308435,4.35853754 C219.347714,-1.11398316 215.422515,-0.978300829 214.144022,2.2554614 C212.865528,5.48922364 220.491629,14.9417594 221.523395,15.8236945 C222.555162,16.7056297 225,13.9919831 225,13.9919831 Z" id="Path" fill="url(#linearGradient-9)"></path>
                        <path d="M273.177867,51.9353442 C273.177867,51.9353442 273.177867,51.9353442 273.177867,51.9353442 C261.241199,49.1844893 245.297373,39.8095756 245.297373,39.8095756 L228.145039,9 L221,12.6751422 C222.166104,19.9594062 229.819989,35.2761666 233.466715,42.2963484 C235.883731,48.6563251 252.251595,62.5206341 257.848896,67.4501662 C264.887926,73.6120813 268.025806,76.0548405 275.298057,77.8814082 C284.775305,80.1261059 281.298194,49.7346603 273.177867,51.9353442 Z" id="Path" fill="url(#linearGradient-10)" fill-rule="nonzero"></path>
                    </g>
                    <g id="Group-3" transform="translate(432.000000, 338.000000)">
                        <path d="M21.3317808,75.477216 C30.1575445,59.8560092 44.9704856,40.2595606 31.7630485,42.5785679 C18.5556113,44.8975751 26.3528816,35.6961952 35.2812867,26.981779 C44.2103852,18.2680604 28.033286,21.7270369 30.9745137,18.9287402 C33.9157414,16.1311412 40.2885171,-2.20882957 32.7721233,0.221104936 C25.255036,2.65173709 22.3103406,2.96986805 21.3317808,15.1390749 C20.3532209,27.3089795 13.816774,36.5452421 14.3070942,22.5572471 C14.7967209,8.56925201 4.83011308,9.12388823 6.79070039,24.5448679 C8.75128771,39.9658476 15.1233699,61.8806058 7.11734936,56.8407416 C-0.890058181,51.8015751 -5.18781537,56.2651757 11.1189726,73.753309 C27.425067,91.2428376 21.3317808,75.477216 21.3317808,75.477216" id="Fill-1204" fill="url(#linearGradient-17)"></path>
                        <path d="M33.9642424,51.9995726 C33.8800965,51.8273477 33.6704328,51.7558188 33.4958299,51.8391534 C33.4642752,51.8544314 30.4266062,53.2815374 27.2963765,52.4718023 C30.8424274,49.2606404 33.6984815,45.5904434 33.9277792,45.2932165 C34.0455835,45.1404363 34.0161324,44.9223773 33.8618649,44.8057088 C33.7082985,44.6904292 33.4888178,44.7189018 33.3703122,44.8709876 C33.2854651,44.9821004 26.5292459,53.6669601 20.9833261,56.0482478 C21.6235366,51.4787311 27.1996087,45.3800234 27.2585109,45.3161335 C27.3889371,45.1744646 27.3791201,44.9550167 27.2360719,44.825848 C27.093725,44.6966793 26.8714395,44.7064016 26.7410132,44.8480705 C26.4892766,45.1209915 20.6642727,51.4933146 20.247049,56.3301967 C19.0612922,56.7211751 17.9491631,56.7795094 16.9941065,56.3475581 C16.9772773,56.3399191 16.9604481,56.3406136 16.9429177,56.3364468 C17.4905677,51.3544235 18.4631547,46.3536499 19.5528448,41.8049668 C19.569674,41.7966334 19.5879056,41.7903833 19.6033324,41.779272 C19.7590024,41.6646868 19.7912584,41.4473223 19.6762589,41.2931532 L19.6762589,41.2924587 C19.8866238,40.4250839 20.101196,39.574376 20.3178718,38.7451962 C20.5927486,37.6903184 20.8781437,36.6451629 21.1691484,35.6097299 C27.0572618,34.5492964 33.6592133,24.7727528 33.9418035,24.3505239 C34.0483884,24.1907991 34.0042118,23.9755179 33.842932,23.8699607 C33.680951,23.763709 33.463574,23.8074597 33.3569891,23.9671845 C33.3121113,24.0345467 30.351576,28.4214217 26.7276901,31.6471672 C26.2950397,27.6450205 30.3978563,23.1310601 30.4399293,23.0852261 C30.5703555,22.9435572 30.5598373,22.7234148 30.4167891,22.5942461 C30.273741,22.4650774 30.0521566,22.4754942 29.9217304,22.6164687 C29.7331032,22.8220275 25.3049222,27.6901601 26.0832723,32.10898 C26.0881808,32.1339804 26.1001015,32.1555085 26.1099185,32.1777311 C24.5721512,33.4596958 22.9425245,34.4847121 21.3809158,34.859718 C22.8913357,29.5749121 24.5700475,24.59775 26.1996742,20.2115695 C26.2852226,20.1907358 26.3728747,20.1657354 26.4654352,20.1337905 C30.1573391,18.8601592 33.8029627,12.3621397 33.9565291,12.0864409 C34.0497908,11.9183827 33.9880838,11.7072682 33.8183894,11.6149056 C33.6486951,11.5218486 33.4355253,11.5836551 33.3422636,11.7517134 C33.3065015,11.8149088 29.8691392,17.943478 26.5152216,19.3685006 C29.0311857,12.6836726 31.3907786,7.46136767 32.7686686,4.75576929 C32.8990949,4.49882078 32.7953148,4.18562138 32.5358648,4.05575821 C32.2764148,3.9265895 31.9601662,4.0293689 31.82974,4.28631742 C30.4174903,7.05858352 27.9492089,12.5822821 25.3476964,19.5441978 C25.2151665,19.4955859 25.1401364,19.4247515 25.1015695,19.385862 C23.722277,17.990701 25.7824505,10.6864187 27.5025341,6.11690195 C27.5705521,5.93703799 27.4786928,5.73703482 27.2970778,5.6703671 C27.1147615,5.60300492 26.9135124,5.69397859 26.8454945,5.87384254 C26.3918075,7.07941718 22.4706059,17.7163911 24.6001998,19.8719808 C24.7215103,19.9948994 24.8919058,20.110179 25.1078804,20.1893469 C22.9502379,26.0206892 20.7217724,32.8062133 18.9434879,39.8097964 C17.4421837,35.0986107 20.642535,26.522086 20.678297,26.4255567 C20.746315,26.2463872 20.6544557,26.0456896 20.4735418,25.9790219 C20.2940305,25.9123542 20.0899765,26.0019389 20.0219585,26.1818029 C19.8592764,26.6116708 16.2690488,36.2347398 18.6573916,40.9570367 C18.0059617,43.6049953 17.4225497,46.2765654 16.9352043,48.9342463 C9.4399032,38.7924191 10.5260873,17.8941717 10.5373067,17.6823628 C10.5485262,17.4906931 10.4005695,17.3274961 10.2077351,17.3163848 C10.0177054,17.3066624 9.84871231,17.4518036 9.83819407,17.6434733 C9.82557217,17.8594489 8.70432729,39.3702061 16.5698706,49.6148127 C16.6252667,49.6877305 16.7059066,49.7245366 16.7900526,49.7391202 C15.9464893,54.5336405 15.4240832,59.2670488 15.3918272,63.7032301 C13.3036051,62.6608525 11.6697711,59.7365006 11.6522407,59.7045557 C11.5596801,59.535803 11.3465104,59.4739965 11.176816,59.5663591 C11.0071217,59.6580272 10.9440122,59.8684472 11.0365727,60.0371999 C11.1165114,60.182341 12.9473872,63.4629485 15.3939309,64.46852 C15.4086564,67.0553665 15.59518,69.5338779 15.9878611,71.8589147 C9.18746533,68.1289946 3.70816108,59.0906571 3.65206378,58.9982945 C3.5538935,58.8323197 3.33791887,58.7788466 3.17173061,58.8767648 C3.00484112,58.9739886 2.95014625,59.1871864 3.04971897,59.3524668 C3.2874313,59.7496953 8.94414327,69.0838708 16.1456348,72.7304563 C16.5607548,74.8693791 17.1567887,76.8707996 17.968096,78.6895784 C18.0543456,78.8840259 18.2478813,79 18.4498316,79 C18.5199532,79 18.5928797,78.9854164 18.6615989,78.9555549 C18.9266587,78.8395808 19.0472679,78.5312426 18.9301647,78.2687384 C17.5151102,75.0929937 16.7942599,71.3262674 16.5642609,67.2803701 C16.7865465,67.3150928 17.0095333,67.3324542 17.2332213,67.3324542 C22.7195377,67.3324542 28.5108832,57.2961842 28.7745405,56.8343714 C28.8699059,56.6677021 28.8103026,56.4551987 28.6420106,56.3614472 C28.4744199,56.2670013 28.2598478,56.32603 28.1637811,56.4926993 C28.098568,56.6072845 21.7553653,67.6060697 16.5292001,66.5643865 C16.3994751,63.4955879 16.5404196,60.2795648 16.86929,57.0434025 C17.3608426,57.2385444 17.8790415,57.3343793 18.4224841,57.3343793 C19.128609,57.3343793 19.8740019,57.1760435 20.6376265,56.9059003 C20.6754921,56.8989557 20.7112542,56.88715 20.7449126,56.8697886 C22.6949951,56.1524161 24.7677905,54.6815595 26.6807086,53.0183388 C27.592991,53.3120934 28.4989625,53.4252896 29.3425257,53.4252896 C31.7736427,53.4252896 33.6949754,52.5162475 33.8029627,52.4634689 C33.9768643,52.3794398 34.0490896,52.1717976 33.9642424,51.9995726" id="Fill-1205" fill="#FFFFFF" opacity="0.375604539"></path>
                        <path d="M3.03095257,72 C3.03095257,72 1.59886915,103.246127 18.216729,101.961444 C18.216729,101.961444 32.2272668,101.150102 26.7155158,72 L3.03095257,72" id="Fill-1206" fill="url(#linearGradient-18)"></path>
                        <path d="M13,101 C14.1806958,101.700745 15.5088985,102.059156 17,101.992013 C15.667308,101.65819 14.33654,101.312073 13,101" id="Fill-1211" fill="#EFA79E"></path>
                        <path d="M26.4545,72.4915 C26.4855,72.4965 26.5155,72.5025 26.5455,72.5085 C26.5445,72.5025 26.5435,72.4965 26.5425,72.4915 L26.4545,72.4915" id="Fill-1212" fill="#EFA79E"></path>
                    </g>
                    <path d="M379.714271,196.909697 C380.764378,189.375529 383.31157,182.442618 386.973878,176.370943 L401.263067,247.66299 C385.82447,236.883799 376.847073,217.48089 379.714271,196.909697 Z M465.325273,205.521383 C464.711566,209.92453 462.329471,214.795327 459.141591,221.598878 L451.68752,238.022782 L441.042135,180.139218 C444.120646,180.408868 446.92232,180.472676 446.92232,180.472676 C449.70385,180.532228 449.948592,176.415618 447.187505,176.18955 C447.187505,176.18955 438.872766,175.677698 433.562506,174.92517 C428.573546,174.218175 420.278303,172.376191 420.278303,172.376191 C417.563735,171.826293 416.653238,176.01797 419.366451,176.567676 C419.366451,176.567676 421.912996,177.261776 424.624662,177.812664 L429.476958,200.885075 L413.658257,233.064807 L402.93082,174.738384 C406.013398,175.008611 408.809649,175.07165 408.809649,175.07165 C411.591179,175.131203 411.835921,171.014592 409.07619,170.788717 C409.07619,170.788717 400.761451,170.276865 395.451191,169.524337 C394.498137,169.389278 393.379066,169.20549 392.19122,168.999355 C403.21766,156.324329 420.109061,149.31918 437.85105,151.833434 C451.071793,153.706973 462.394442,160.529698 470.260323,170.193392 C470.042422,170.149912 469.832433,170.089352 469.607387,170.05746 C464.621139,169.350849 460.466545,173.25081 459.807676,177.977981 C459.217123,182.214998 461.131581,186.144758 463.11433,190.745043 C464.570096,194.444589 466.211102,199.165857 465.325273,205.521383 Z M430.326784,207.527691 L440.294115,252.440973 C440.36289,252.705844 440.456603,252.953563 440.56445,253.190874 C434.92653,254.279833 429.002386,254.480115 422.97576,253.626069 C417.894379,252.905976 413.09148,251.482039 408.64112,249.490246 L430.326784,207.527691 Z M478.583932,186.467065 C481.668243,194.447745 482.823875,203.269326 481.56535,212.29883 C478.894847,231.458795 466.028392,246.696574 449.110763,253.481543 L471.595448,209.893359 C475.635108,202.91092 477.459714,197.126128 478.193918,191.858455 C478.460234,189.947728 478.579814,188.153362 478.583932,186.467065 Z M421.724828,261.239676 C452.979924,265.632293 482.01109,243.564523 486.440995,212.044115 C490.870321,180.527823 469.046475,151.312847 437.791378,146.92023 C406.534921,142.527421 377.501034,164.594809 373.071708,196.111101 C368.641803,227.631509 390.468371,256.846867 421.724828,261.239676 Z M438.177409,144.173479 C470.933283,148.777017 493.812433,179.398099 489.170424,212.427711 C484.527451,245.464183 454.094672,268.589965 421.338797,263.986427 C388.580201,259.382506 365.704748,228.764741 370.347721,195.728269 C374.98973,162.698657 405.418813,139.569558 438.177409,144.173479 Z" id="Combined-Shape" fill="url(#linearGradient-19)" opacity="0.114408482" transform="translate(429.758919, 204.079939) rotate(18.000000) translate(-429.758919, -204.079939) "></path>
                    <g id="Group-31" transform="translate(50.000000, 142.000000)">
                        <rect id="Rectangle" fill="url(#linearGradient-20)" x="0" y="0.5" width="36" height="36" rx="7.56690998"></rect>
                        <path d="M12.8246468,15.1066651 L12.8246468,15.1062474 L12.8246468,11.7775406 C13.4770156,11.7566553 16.2692328,11.7934135 18.7568803,13.751206 C18.2369502,13.4826204 17.6525692,13.3932311 17.0721181,13.6338304 C16.4107104,13.9078461 15.8577689,14.6133532 15.8125747,15.3731621 C15.734762,16.6684714 15.8125747,17.9959441 15.8125747,19.2937596 L15.8125747,23.2009905 C15.3154382,23.2498622 14.8186947,23.2603049 14.3651804,23.2690767 C13.8845497,23.2782663 13.4306424,23.2874558 13.0580848,23.3409223 C12.9763422,23.3526181 12.8989225,23.3693264 12.8246468,23.3889586 L12.8246468,15.1066651 Z M12.0035267,25.2354322 C12.0035267,25.2354322 11.8785548,23.975628 13.1164836,23.7981026 C14.3536264,23.6201594 16.6738587,23.9672739 18.2151783,22.9296898 C18.2151783,22.9296898 19.1281017,22.4221759 19.3061277,22.175311 L19.0667948,23.0520779 C19.0667948,23.0520779 18.3401502,25.7362628 16.1409598,26.076694 C13.9421625,26.4171252 13.5326635,25.1489669 12.0035267,25.2354322 Z M16.7378773,26.3578108 C18.4827675,25.9079404 20.4748503,24.5311783 20.4748503,17.6181282 C20.4748503,10.7046603 12.9388114,11.2944626 12.9388114,11.2944626 C14.7367556,10.1704131 24,8.769424 24,18.4928065 C24,28.2166067 16.7378773,26.3578108 16.7378773,26.3578108 Z" id="Combined-Shape" fill="url(#linearGradient-21)"></path>
                    </g>
                    <g id="Group-30" transform="translate(3.000000, 269.000000)">
                        <g id="Rectangle-Copy-3">
                            <use fill="black" fill-opacity="1" filter="url(#filter-24)" xlink:href="#path-23"></use>
                            <use fill="url(#linearGradient-22)" fill-rule="evenodd" xlink:href="#path-23"></use>
                        </g>
                        <path d="M16.1819066,23.1922266 C16.6856651,23.6222206 16.7455028,24.3797755 16.301582,24.8720549 C15.8793523,25.3395702 15.1642919,25.3845958 14.6844684,24.9763641 C13.0422978,23.5790711 12,21.4947633 12,19.164691 C12,16.7385641 13.1309323,14.5765872 14.8916564,13.1807951 C15.5195781,12.6821371 16.2286548,12.2806593 16.9956992,12 L18.4232021,14.0062636 L19.1636935,15.0951315 L17.648304,17.1036463 L16.2443622,15.0827495 C15.0715434,16.0522997 14.3254422,17.5205079 14.3254422,19.164691 C14.3254422,20.7781066 15.0464864,22.2223012 16.1819066,23.1922266 Z M24.332735,25.1742139 C23.8536594,25.5843216 23.1363551,25.5396713 22.7137514,25.0710303 C22.2705786,24.5802518 22.3292943,23.8245729 22.8304349,23.3938285 C23.9591234,22.4239031 24.6749317,20.9849615 24.6749317,19.377174 C24.6749317,17.7510012 23.943042,16.2955502 22.7919144,15.3267504 L20.9040353,17.9795059 L20.600733,18.4053725 L20.600733,19.6064291 L20.600733,25.7936904 C20.600733,26.45369 20.0719174,26.9992496 19.4144508,27 C19.410337,27 19.4062231,27 19.4021093,27 C19.3983694,27 19.3938816,27 19.3901417,27 C18.7323011,26.9992496 18.2038595,26.45369 18.2038595,25.7936904 L18.2038595,19.6064291 L18.192266,18.3066915 L18.1862822,18.2984369 L18.1862822,17.6598245 L22.0503011,12.2304933 C22.8151015,12.5149047 23.5204383,12.9205099 24.1457422,13.4240456 C25.885897,14.8194625 27,16.9679318 27,19.377174 C27,21.6989917 25.964808,23.7769209 24.332735,25.1742139 Z" id="Combined-Shape" fill="url(#linearGradient-21)"></path>
                    </g>
                    <g id="Group-12" transform="translate(496.000000, 294.000000)">
                        <rect id="Rectangle-Copy-7" fill="url(#linearGradient-25)" x="0" y="0" width="37" height="37" rx="6.02264263"></rect>
                        <path d="M21.7908546,17.0899087 L16.9806196,19.1413547 C16.4869216,19.3542406 15.9142927,19.1269346 15.7014068,18.6332367 C15.4881414,18.1395387 15.7158269,17.5669097 16.2095248,17.3540238 L21.0197598,15.3025777 C21.5134578,15.0896918 22.0860868,15.3169978 22.2989727,15.8106958 C22.5118586,16.3040143 22.2845526,16.8766433 21.7908546,17.0899087 M21.7908546,20.6463557 L16.9806196,22.6978018 C16.4869216,22.9106877 15.9142927,22.6833817 15.7014068,22.1896837 C15.4881414,21.6959857 15.7158269,21.1233567 16.2095248,20.9104708 L21.0197598,18.8590247 C21.5134578,18.6457594 22.0860868,18.8734448 22.2989727,19.3667633 C22.5118586,19.8604613 22.2845526,20.4334698 21.7908546,20.6463557 M25.3059388,13.1228688 C24.7435557,12.4375356 23.8901147,12 22.9345946,12 L15.0654054,12 C14.1724988,12 13.3687691,12.3821321 12.8086629,12.9911907 C12.3066164,13.5372564 12,14.2654704 12,15.0654054 L12,17.8890847 L12,22.9345946 C12,24.6278156 13.3725639,26 15.0654054,26 L21.6011167,26 L22.9345946,26 C23.6510449,26 24.3098149,25.7544792 24.8315941,25.3427479 C25.5431112,24.7815033 26,23.9113653 26,22.9345946 L26,15.0654054 C26,14.3280839 25.7396796,13.6514786 25.3059388,13.1228688" id="Fill-1" fill="url(#linearGradient-26)"></path>
                    </g>
                    <g id="Group-28" transform="translate(105.000000, 51.000000)">
                        <rect id="Rectangle-Copy-4" fill="url(#linearGradient-27)" x="0" y="0" width="47" height="46" rx="7.56690998"></rect>
                        <path d="M12,14.0004106 L20.1379498,14.0004106 L20.1379498,16.9935371 L12.9552381,16.9935371 L12,14.0004106 Z M13.5917079,18.4859939 L20.1377558,18.4859939 L20.1377558,21.4795766 L14.546946,21.4795766 L13.5917079,18.4859939 Z M29.096871,25.2870524 C29.096871,28.4371355 26.3732301,31 23.0255327,31 C19.6778354,31 16.9541945,28.4371355 16.9541945,25.2870524 L16.9541945,22.6767359 L20.1360587,22.6767359 L20.1360587,25.2870524 C20.1360587,26.7863533 21.4321762,28.005961 23.0255327,28.005961 C24.6193742,28.005961 25.9154917,26.7863533 25.9154917,25.2870524 L25.9154917,22.6767359 L29.096871,22.6767359 L29.096871,25.2870524 Z M31.0253367,21.4796222 L25.9155402,21.4796222 L25.9155402,18.4860395 L31.0253367,18.4860395 C31.4627097,18.4860395 31.8186207,18.1515941 31.8186207,17.7400392 C31.8186207,17.3284844 31.4627097,16.9935827 31.0253367,16.9935827 L25.9155402,16.9935827 L25.9155402,14 L31.0253367,14 C33.2170505,14 35,15.6781584 35,17.7400392 C35,19.8019201 33.2170505,21.4796222 31.0253367,21.4796222 Z" id="Combined-Shape" fill="url(#linearGradient-21)"></path>
                    </g>
                    <g id="Group-16" transform="translate(354.000000, 101.000000)">
                        <rect id="Rectangle-Copy-9" fill="url(#linearGradient-28)" x="0" y="0" width="35" height="35" rx="6.25092563"></rect>
                        <path d="M14.1139453,14.9415299 C13.3977575,14.4200401 12.4304135,14.312361 11.5886475,14.6603885 C11.3696706,14.7511622 11.1726699,14.8680289 11,15.0051083 C11.3755571,13.8478345 12.5838542,13 14.0189769,13 L25,13 L18.2160336,17.9135444 L14.1139453,14.9415299 Z M12.1437421,15.6984069 C12.5287176,15.5392771 12.9548984,15.5863178 13.2825788,15.8255637 L14.1659425,16.4690653 L17.8022144,19.0996674 C18.0427751,19.2738649 18.3900771,19.2738649 18.6302453,19.0992999 L23.8978556,15.2842285 L24.9217099,14.542603 L24.9217099,20.8085665 C24.9217099,22.0169236 23.8044569,23 22.4313385,23 L14.0187807,23 C12.6456622,23 11.5288017,22.0169236 11.5288017,20.8085665 L11.5288017,20.4142335 L11.5288017,16.5513864 C11.5288017,16.1768986 11.7587666,15.8582716 12.1437421,15.6984069 Z" id="Combined-Shape" fill="url(#linearGradient-26)"></path>
                    </g>
                    <g id="Group-25" transform="translate(575.000000, 198.000000)">
                        <g id="Rectangle-Copy-11">
                            <use fill="black" fill-opacity="1" filter="url(#filter-31)" xlink:href="#path-30"></use>
                            <use fill="url(#linearGradient-29)" fill-rule="evenodd" xlink:href="#path-30"></use>
                        </g>
                        <path d="M31.7703407,23.4241542 C31.5659159,23.3038916 31.3280398,23.2333127 31.0734381,23.2333127 C30.8193009,23.2333127 30.5814248,23.3038916 30.3765354,23.4241542 L30.3765354,21.6480741 C30.3765354,21.263605 30.6887478,20.9515721 31.0734381,20.9515721 C31.4585929,20.9515721 31.7703407,21.263605 31.7703407,21.6480741 L31.7703407,23.4241542 Z M27.5,17.5875603 C22.5863717,17.5875603 18.5884735,21.5826958 18.5884735,26.4939636 C18.5884735,26.8928271 18.6177434,27.2847256 18.668385,27.6701234 C18.9582965,27.4630301 19.2900221,27.2392208 19.6556637,27.0093751 L19.6556637,26.3611639 C19.6556637,25.9762305 19.9674115,25.6646619 20.3525664,25.6646619 C20.6880088,25.6646619 20.9672345,25.9010083 21.0341372,26.2162915 C21.6980531,25.8685048 22.4330531,25.5323265 23.2293805,25.2393314 L23.2293805,24.0051298 C23.2293805,23.6206607 23.5411283,23.3086278 23.9262832,23.3086278 C24.3114381,23.3086278 24.6231858,23.6206607 24.6231858,24.0051298 L24.6231858,24.7958917 C24.7597788,24.758745 24.8954425,24.7202052 25.0343584,24.6867731 C25.6281195,24.5428293 26.2172345,24.436961 26.8030973,24.3663822 L26.8030973,20.4576129 C26.8030973,20.0726794 27.1148451,19.7611109 27.5,19.7611109 C27.8846903,19.7611109 28.1969027,20.0726794 28.1969027,20.4576129 L28.1969027,24.2684076 C28.7093584,24.2581922 29.2180973,24.2758369 29.7235841,24.3222704 C29.8234735,24.3315571 29.9238274,24.3408438 30.0232522,24.3524521 C30.079469,24.1277141 30.2044469,23.9308362 30.3763496,23.7859638 C30.5654425,23.6271614 30.8079646,23.5310441 31.0732522,23.5310441 C31.3390044,23.5310441 31.5819912,23.6271614 31.7701549,23.7859638 C32.0066372,23.9846991 32.1571681,24.2818733 32.1571681,24.6143369 C32.1571681,24.668664 32.1520575,24.7215982 32.1441593,24.774068 C32.2403319,24.8009994 32.3365044,24.8279308 32.4322124,24.8571839 C32.9428097,25.0136647 33.4487611,25.2012559 33.950531,25.4190289 L33.950531,25.0545262 C33.950531,24.6695927 34.2622788,24.3580241 34.6474336,24.3580241 C35.0321239,24.3580241 35.3443363,24.6695927 35.3443363,25.0545262 L35.3443363,26.1113519 C35.6997566,26.3100871 36.0537832,26.5246097 36.4045575,26.7553841 C36.4073451,26.6680892 36.4115265,26.5817229 36.4115265,26.4939636 C36.4115265,21.5826958 32.4136283,17.5875603 27.5,17.5875603 Z M19.6556637,30.7156945 L19.6556637,27.2341131 C19.3034956,27.4602441 18.9838496,27.6812674 18.6990487,27.888825 C18.8579425,28.8968956 19.1864159,29.849246 19.6556637,30.7156945 Z M26.8030973,28.5323929 L26.8030973,24.547937 C26.0448673,24.6384823 25.3163717,24.7866051 24.6231858,24.9774466 L24.6231858,29.0821651 C25.3200885,28.8732145 26.0471903,28.6874807 26.8030973,28.5323929 Z M36.1922345,28.4488126 C36.2986283,27.9747269 36.3697124,27.4871755 36.3966593,26.9880157 C36.0449558,26.7525981 35.6937168,26.5376111 35.3443363,26.3393402 L35.3443363,28.3081192 C35.6249558,28.3499093 35.9074336,28.3963428 36.1922345,28.4488126 Z M35.3443363,28.5087118 L35.3443363,30.7156945 C35.694646,30.068412 35.9659735,29.3728386 36.1471681,28.6424402 C35.8776991,28.5927564 35.6100885,28.5486446 35.3443363,28.5087118 Z M24.6231858,29.2897227 L24.6231858,34.9211737 C25.3159071,35.1579843 26.0457965,35.3112148 26.8030973,35.3701853 L26.8030973,28.7348428 C26.0467257,28.8913236 25.3200885,29.0789148 24.6231858,29.2897227 Z M21.049469,32.6292177 C21.6831858,33.2946093 22.4177212,33.8634193 23.2293805,34.3082519 L23.2293805,31.1730642 C23.8198894,31.016119 24.2570796,30.4788838 24.2570796,29.8399593 C24.2570796,29.6950869 24.2343142,29.5553222 24.1929646,29.4239154 C24.0981858,29.4545615 24.0029425,29.4847433 23.9090929,29.5158537 C23.941615,29.6180073 23.9592699,29.727126 23.9592699,29.8399593 C23.9592699,30.3131163 23.6535619,30.7152302 23.2293805,30.8624243 C23.1178761,30.900964 22.9989381,30.9227878 22.875354,30.9227878 C22.4376991,30.9227878 22.0604425,30.6618317 21.889469,30.2875779 C21.7979425,30.3265821 21.7068805,30.3665148 21.6167478,30.4059833 C21.4244027,30.4914209 21.2353097,30.5777871 21.049469,30.665082 L21.049469,32.6292177 Z M28.1969027,35.3701853 C28.9537389,35.3112148 29.6840929,35.1579843 30.3763496,34.9211737 L30.3763496,28.2686508 C29.6288053,28.3099766 28.9021681,28.3847344 28.1969027,28.4887454 L28.1969027,35.3701853 Z M31.7701549,34.3082519 C32.5822788,33.8634193 33.3168142,33.2946093 33.950531,32.6292177 L33.950531,28.3378366 C33.2071681,28.2686508 32.480531,28.2352187 31.7701549,28.232897 L31.7701549,34.3082519 Z M30.3763496,25.4427099 C30.1407965,25.2435104 29.9898009,24.9463362 29.9898009,24.6143369 C29.9898009,24.5897271 29.9916593,24.5651174 29.9935177,24.540972 C29.8940929,24.5293636 29.7955973,24.5196126 29.6971018,24.5103259 C29.1878982,24.4615708 28.6875221,24.4439261 28.1969027,24.4522841 L28.1969027,28.2872242 C28.9021681,28.1841419 29.6292699,28.110777 30.3763496,28.0699155 L30.3763496,25.8044267 C30.5817035,25.9246893 30.8195796,25.9948039 31.0732522,25.9948039 C31.327854,25.9948039 31.5657301,25.9246893 31.7701549,25.8044267 L31.7701549,28.0346261 C32.4809956,28.0364834 33.2071681,28.0699155 33.950531,28.1386371 L33.950531,25.6354088 C33.4227434,25.4023128 32.900531,25.2082209 32.3843584,25.0484898 C32.2886504,25.0192367 32.1934071,24.9913766 32.0976991,24.9639809 C32.0335841,25.1520364 31.9197566,25.3168752 31.7701549,25.4427099 C31.5819912,25.6010481 31.3390044,25.6976297 31.0732522,25.6976297 C30.8079646,25.6976297 30.5654425,25.6015124 30.3763496,25.4427099 Z M23.2293805,25.4301729 C22.4400221,25.7250254 21.7101327,26.0639897 21.049469,26.4164198 L21.049469,30.4463804 C21.2130088,30.3702295 21.3793363,30.294543 21.5479867,30.2202494 C21.6399779,30.179388 21.7310398,30.1385265 21.8239602,30.0985937 C21.8035177,30.0154778 21.7914381,29.9291116 21.7914381,29.8399593 C21.7914381,29.2428249 22.2778761,28.7566665 22.875354,28.7566665 C22.9989381,28.7566665 23.1178761,28.7784902 23.2293805,28.81703 C23.4890929,28.907111 23.7046681,29.0928448 23.831969,29.3324415 C23.9267478,29.3013311 24.0224558,29.2702207 24.1176991,29.2395746 C23.9439381,28.8820369 23.6205752,28.6104011 23.2293805,28.5068545 L23.2293805,25.4301729 Z M27.5,16 C33.2894027,16 38,20.7074249 38,26.4939636 C38,32.2312829 33.368385,36.9048114 27.6463496,36.9837483 C27.5989602,36.9939636 27.550177,37 27.5,37 C27.449823,37 27.4005752,36.9939636 27.3536504,36.9837483 C21.6311504,36.9048114 17,32.2312829 17,26.4939636 C17,20.7074249 21.7101327,16 27.5,16 Z" id="Combined-Shape" fill="url(#linearGradient-26)"></path>
                    </g>
                    <g id="Group-21" transform="translate(515.000000, 128.000000)">
                        <rect id="Rectangle-Copy-10" fill="url(#linearGradient-32)" x="0" y="0" width="38" height="38" rx="9.11117732"></rect>
                        <path d="M24.5214716,23.2416806 L24.5214716,23.2448658 C24.5216818,23.9603802 24.0964026,24.6059251 23.4430325,24.8820867 C23.2505742,24.9612934 23.0444515,25.0014276 22.8365418,24.9999411 L22.6935909,24.9999411 C22.4868375,25.0017461 22.2816608,24.9620366 22.0902536,24.8831484 C21.6107371,24.6812033 21.2440047,24.2754019 21.0885455,23.7746798 C21.0790855,23.743889 21.0696255,23.7120365 21.0622678,23.680184 C21.0550151,23.6483314 21.0465011,23.6164789 21.0371462,23.5856881 C21.0125503,23.5045702 20.9850112,23.4245142 20.9544239,23.3455199 C20.3000026,21.6578658 18.4150466,20.8255588 16.7443069,21.4866053 C17.2525187,20.751767 17.9721088,20.1925425 18.8055341,19.8847407 C21.0497596,19.0561498 23.5339535,20.2220592 24.354345,22.4888987 C24.3964945,22.6035679 24.4331783,22.7214223 24.4657627,22.8414002 C24.5016056,22.9717833 24.5203153,23.1064134 24.5214716,23.2416806 Z M17.3466141,12.256746 C19.0872527,10.9645944 21.1169465,14.9005074 21.7539193,16.2701669 C19.1271948,15.4065381 16.251147,15.8457848 13.9946236,17.4550816 C13.5167889,17.7970717 13.073851,18.1860975 12.6723269,18.6166378 C13.846417,16.397577 15.5786467,13.5690709 17.3466141,12.256746 Z M19.0420444,16.6715196 C22.6435685,16.6716257 25.8444094,18.9901726 27,22.4357687 C26.1942189,20.8964413 24.8553147,19.7111019 23.2389174,19.1060097 C19.608803,17.74718 15.5753777,19.6181986 14.2300618,23.2851699 C14.2044147,23.4036614 14.1652083,23.5187552 14.1133885,23.6281157 C13.843989,24.2064517 13.2682959,24.5757289 12.6356326,24.5761536 C11.7329392,24.5767907 11.0006307,23.8381301 11,22.9262979 C11.0002102,22.8074879 11.0129287,22.6888902 11.03784,22.5727346 C11.0641177,22.4476603 11.1045855,22.3261959 11.1587176,22.2106773 C12.3802128,18.8799628 15.5257653,16.6698207 19.0420444,16.6715196 Z" id="Combined-Shape" fill="url(#linearGradient-26)"></path>
                    </g>
                    <g id="Group-8" transform="translate(451.374881, 44.374881) rotate(-13.000000) translate(-451.374881, -44.374881) translate(414.374881, 7.374881)">
                        <path d="M16.4609811,6.52941176 L57.5390189,6.52941176 C63.0240732,6.52941176 67.4705882,10.9759268 67.4705882,16.4609811 L67.4705882,57.5390189 C67.4705882,63.0240732 63.0240732,67.4705882 57.5390189,67.4705882 L16.4609811,67.4705882 C10.9759268,67.4705882 6.52941176,63.0240732 6.52941176,57.5390189 L6.52941176,16.4609811 C6.52941176,10.9759268 10.9759268,6.52941176 16.4609811,6.52941176 Z" id="Rectangle-Copy-13" fill="url(#linearGradient-33)" transform="translate(37.000000, 37.000000) rotate(12.000000) translate(-37.000000, -37.000000) "></path>
                        <path d="M45.431392,28.9251341 C42.5572424,29.9117416 38.0996283,31.7624323 35.5253675,33.1839681 C34.8486788,33.5573137 34.1454913,33.9768464 33.3757337,34.4656597 C32.8199053,34.8178362 32.2951,35.1520511 31.6281059,35.0686577 C30.9016512,34.978208 29.8740151,34.3649462 29.9476947,33.5233149 C30.047873,32.3756942 31.93058,31.4141047 32.7895287,30.8605012 C34.10542,30.0118136 35.549281,29.3145169 36.9886179,28.7512911 C38.7536961,28.0597678 40.690047,27.4420155 42.6076548,27.4420155 C43.0801088,27.442657 43.4911633,27.4914101 43.8356476,27.5844257 C44.4082801,27.9827893 44.9434264,28.4305474 45.431392,28.9251341 Z M46.2364383,36.0156213 C45.2533977,36.3665148 36.5921701,39.5219907 35.3454342,42.0885813 C35.0145225,42.7698408 35.0022425,43.58902 35.3124723,44.2792603 C35.6323968,44.9919527 36.3278285,45.7662278 37.838906,45.7662278 C38.1071255,45.7662278 38.4005512,45.7418513 38.7217683,45.6886079 C39.6518113,45.5340094 40.5068821,45.326809 41.2630672,45.0708556 C42.0095576,44.8181096 42.7469996,44.5114787 43.4605281,44.2144701 C43.6608848,44.1310768 43.8612416,44.0476834 44.0615983,43.965573 C45.8014703,43.2528807 48.0189669,42.0199421 50.1317609,40.6009723 C48.7809688,46.4263182 43.5277446,50.771753 37.2481769,50.771753 C29.9442046,50.771753 24.02334,44.8950881 24.02334,37.6462819 C24.02334,30.3968342 29.9442046,24.5201693 37.2481769,24.5201693 C39.3564467,24.5201693 41.3490267,25.0109071 43.1179827,25.8826883 C36.1933956,27.1188343 32.6192901,29.7059524 30.5252391,31.5585677 L30.5077887,31.5752464 C30.4347554,31.6528663 30.3559053,31.7324107 30.2751163,31.8145211 C29.5997203,32.4977051 28.6742014,33.4329935 29.2655769,34.9372812 C29.5809772,35.7404232 30.415366,36.3568925 31.3428238,36.4710772 C31.4352464,36.482624 31.5257301,36.4877559 31.6142749,36.4877559 C32.3471927,36.4877559 32.9301662,36.1176177 33.4510937,35.7866103 C34.2118029,35.3042119 34.9052957,34.8904526 35.5722897,34.5228804 C39.0358759,32.6099653 45.1751939,30.2666123 47.1910412,29.7470076 C48.29882,30.230689 50.403212,32.6805289 50.2687791,34.7730604 C49.0478956,35.123954 47.3151331,35.6300874 46.2364383,36.0156213 Z M48.8759766,37.1980748 C48.8759766,37.9345021 48.8022971,38.6542509 48.6652789,39.350906 C47.8599741,39.9859784 46.0354353,41.1522023 43.5477802,42.4403088 C41.9371706,43.2748837 40.4248005,44.2781698 38.5750555,44.6893631 C37.6831448,44.8875827 36.1604337,44.3506579 36.223126,43.2639784 C36.2683678,42.4768735 37.6721575,41.5659616 38.2518994,41.1643906 C39.3131438,40.4292462 40.4765055,39.8403608 41.6560249,39.3149828 C44.2981485,38.1384951 47.1910412,37.2731288 48.8675746,36.8478227 C48.8714525,36.9645734 48.8759766,37.0806826 48.8759766,37.1980748 Z M29.2729449,34.1127776 L29.2716523,34.113419 C29.2703596,34.1037967 29.2716523,34.0948159 29.271006,34.0851936 C29.271006,34.0941744 29.2729449,34.1037967 29.2729449,34.1127776 Z" id="Combined-Shape" fill="url(#linearGradient-26)" transform="translate(37.149132, 37.645961) rotate(32.000000) translate(-37.149132, -37.645961) "></path>
                    </g>
                </g>
            </g>
        </g>
    </g>
</svg>