<?xml version="1.0" encoding="UTF-8"?>
<svg width="155px" height="34px" viewBox="0 0 155 34" version="1.1" xmlns="http://www.w3.org/2000/svg" xmlns:xlink="http://www.w3.org/1999/xlink">
    <!-- Generator: Sketch 54.1 (76490) - https://sketchapp.com -->
    <title>appsero logo design_01</title>
    <desc>Created with Sketch.</desc>
    <defs>
        <linearGradient x1="81.7632374%" y1="42.9352174%" x2="6.89134148%" y2="63.8719638%" id="linearGradient-1">
            <stop stop-color="#907CFF" offset="0%"></stop>
            <stop stop-color="#6EBCFF" offset="100%"></stop>
        </linearGradient>
    </defs>
    <g id="Page-1" stroke="none" stroke-width="1" fill="none" fill-rule="evenodd">
        <g id="Home-Page-Design---WeDevs-U3" transform="translate(-883.000000, -1779.000000)" fill-rule="nonzero">
            <g id="appsero-logo-design_01" transform="translate(883.000000, 1779.000000)">
                <path d="M34.7959182,29.486501 C34.7928412,29.1391666 34.7445957,28.7937328 34.6524119,28.4590076 C34.5684743,28.1510321 34.473706,27.8485075 34.3653994,27.5541592 C32.9387527,23.6258538 29.4594212,20.8226604 25.3390367,20.2818887 C21.2186522,19.741117 17.1415561,21.552582 14.7619048,24.9813374 C16.933548,24.1251877 19.3616069,24.219978 21.4608477,25.242861 C23.5600885,26.265744 25.1400839,28.1239316 25.8200087,30.3695458 C25.8443776,30.4485837 25.866039,30.5303471 25.8849926,30.6121105 C25.9039463,30.6938739 25.9283153,30.7756373 25.9526842,30.8546753 C26.3532894,32.1400847 27.2977927,33.1815717 28.533089,33.7000418 C29.0262904,33.9026873 29.5546008,34.0045963 30.0872887,33.9998409 L30.4555312,33.9998409 C30.9910267,34.0036581 31.521986,33.9008444 32.0178539,33.6973163 C33.7010283,32.9884104 34.7964663,31.3312383 34.7959182,29.4946773 L34.7959182,29.486501 Z" id="Path" fill="#E2E2E2"></path>
                <path d="M16.1573051,0.659652609 C11.6413533,4.03138372 7.21668714,11.29861 4.21768707,17 C5.24335721,15.8938756 6.37478378,14.8941652 7.59525384,14.0156361 C13.3591574,9.88073002 20.7056569,8.75228146 27.414966,10.9712575 C25.7879346,7.45221772 20.6034502,-2.66024769 16.1573051,0.659652609 Z" id="Path" fill="#E2E2E2"></path>
                <path d="M4.21768707,17 C5.24335721,15.85376 6.37478378,14.8177932 7.59525384,13.9074026 C13.3591574,9.62253662 20.7056569,8.4531628 27.414966,10.7526141 C26.9880716,9.79147776 26.3114843,8.35825393 25.4684351,6.83174333 C25.4684351,6.83174333 14.7611725,3.09461926 4.21768707,17 Z" id="Path" fill="#D6D6D6"></path>
                <path d="M20.6692851,12.7500025 C11.631812,12.7456374 3.54741543,18.3899949 0.407928642,26.89606 C0.268839643,27.1910718 0.164574489,27.501387 0.0972545108,27.8206921 C0.0332145367,28.1173894 0.000615083304,28.4200525 0,28.723632 C0.00138960007,30.6973403 1.36668696,32.4059797 3.28589651,32.8358586 C5.20510607,33.2657375 7.16460985,32.301812 8.00188503,30.515954 C8.13506804,30.2365597 8.23568939,29.942675 8.3017531,29.6401295 C10.7702978,22.9539928 16.9229343,18.3480936 24.0116975,17.8795746 C31.1004606,17.4110555 37.8017088,21.1674003 41.122449,27.4709046 C38.152406,18.6714854 29.9256295,12.7503686 20.6692851,12.7500025 Z" id="Path" fill="url(#linearGradient-1)"></path>
                <path d="M33.7414966,25.5 C31.6898327,22.2581847 28.1657255,20.2652147 24.3514966,20.1897223 C20.5372677,20.1142298 16.9382528,21.9662167 14.7619048,25.1243499 C16.4026974,24.4620485 18.2108663,24.3470978 19.9212164,24.7963569 C22.0238793,22.9265165 27.4641023,19.3942843 33.7414966,25.5 Z" id="Path" fill="#D6D6D6"></path>
                <path d="M73.1805777,25.4638416 C72.4206966,25.4431838 71.6626318,25.3763154 70.9102758,25.2635798 L70.9102758,28.2591623 C70.9058676,29.6674304 69.8080919,30.8079202 68.452567,30.8125 L67.0095331,30.8125 C66.6886768,30.8125 66.4285714,30.542274 66.4285714,30.2089332 L66.4285714,12.0157068 C66.4285714,11.5567736 66.5383384,11.3537304 67.2852891,11.1812827 C68.8595079,10.7807592 71.033429,8.50278141 73.1752232,8.5 C77.0384845,8.5 80.1360544,11.8376963 80.1360544,15.8624018 L80.1360544,18.1042212 C80.1253455,22.6184555 77.8577208,25.4638416 73.1805777,25.4638416 Z M75.6489955,15.0530105 C75.6490254,14.3331056 75.3721164,13.643045 74.8798746,13.1363515 C74.3876328,12.629658 73.7208877,12.3483597 73.0279749,12.3550393 L72.9717528,12.3550393 C71.830637,12.3642059 70.9102417,13.3278645 70.9102758,14.5134162 L70.9102758,21.4669503 C71.6634623,21.5672737 72.4213553,21.6248418 73.1805777,21.6393979 C75.1456739,21.6393979 75.6436411,20.1151832 75.6436411,18.1042212 L75.6489955,15.0530105 Z" id="Shape" fill="#474747"></path>
                <path d="M88.9941045,25.470188 C88.2368937,25.4494707 87.4815102,25.3825765 86.7318605,25.2698513 C86.7318605,25.2698513 86.7318605,25.2698513 86.7318605,25.2698513 L86.7318605,28.2498597 C86.727447,29.6632648 85.6247833,30.8079184 84.263227,30.8125 L82.8345824,30.8125 C82.5090854,30.8094592 82.246351,30.53548 82.244898,30.1975776 L82.244898,12.0170221 C82.244898,11.5579171 82.3547937,11.354798 83.1026208,11.1822858 C84.6760061,10.7816124 86.8551582,8.50278245 88.983383,8.5 C92.8565376,8.5 95.952381,11.838945 95.952381,15.8735036 L95.952381,18.0994669 C95.9470202,22.6237374 93.6847762,25.470188 88.9941045,25.470188 Z M91.4600576,15.0999813 C91.4579458,14.3694482 91.17525,13.6699576 90.6746226,13.1565337 C90.1739952,12.6431098 89.4967841,12.3581574 88.7930757,12.3648288 L88.7930757,12.3648288 C87.6472135,12.370928 86.720176,13.3345092 86.7157782,14.5240133 L86.7157782,21.463454 C86.7157782,21.463454 86.7157782,21.463454 86.7157782,21.463454 C87.4673456,21.5614095 88.2233746,21.618065 88.9807026,21.6331837 C90.9481043,21.6331837 91.4466557,20.1083988 91.4466557,18.0966844 L91.4600576,15.0999813 Z" id="Shape" fill="#474747"></path>
                <path d="M104.791746,25.5 C103.094235,25.4946065 101.403178,25.2821574 99.7531695,24.8669986 C99.4388365,24.819072 99.2086516,24.5339153 99.2174357,24.2033232 L99.2174357,21.8693049 C99.210469,21.7192849 99.2646715,21.5731761 99.3666906,21.4669721 C99.4687096,21.360768 99.609061,21.304342 99.7531695,21.3115945 L99.8629949,21.3115945 C101.357692,21.5151588 103.685456,21.7159346 104.569416,21.7159346 C105.908751,21.7159346 106.203404,21.3422685 106.203404,20.6005136 C106.203404,20.168288 105.954288,19.8503931 105.180153,19.390282 L101.580022,17.2263654 C100.029072,16.3061431 99.1156463,14.8365761 99.1156463,12.9626689 C99.1156463,10.0514204 100.971964,8.5009853 104.791746,8.5009853 C106.456278,8.4831887 108.115096,8.70655492 109.720497,9.16466074 C110.03483,9.21258742 110.265015,9.49774406 110.25623,9.82833618 L110.25623,12.1623544 C110.275867,12.3038488 110.234914,12.4471904 110.14419,12.5545148 C110.053466,12.6618393 109.922097,12.7223508 109.784785,12.7200649 L109.701746,12.7200649 C108.177841,12.5108005 106.644416,12.385142 105.107829,12.3436103 C104.036361,12.3436103 103.639918,12.5165006 103.639918,13.180176 C103.639918,13.6124016 103.945286,13.8438515 104.497092,14.1896319 L107.917752,16.219698 C110.21605,17.6139742 110.714283,19.1002725 110.714283,20.6562847 C110.716962,23.3667575 108.833857,25.5 104.791746,25.5 Z" id="Path" fill="#474747"></path>
                <path d="M125.965656,18.4393625 L117.212813,18.4393625 L117.212813,18.500665 C117.212813,20.1418998 117.870602,21.6410242 120.037594,21.6410242 C121.764291,21.6410242 124.204478,21.4961275 125.299909,21.3818819 L125.382133,21.3818819 C125.675107,21.3818819 125.912608,21.6313915 125.912608,21.9391773 L125.912608,24.0429672 C125.912608,24.5027358 125.801209,24.7061486 125.337043,24.8203942 C123.49768,25.3114949 121.603429,25.5383367 119.706047,25.4947216 C116.387924,25.4947216 112.823129,23.650074 112.823129,18.0910529 L112.823129,16.0764302 C112.823129,11.4397329 115.401239,8.5 119.759094,8.5 C124.268135,8.5 126.530612,11.72674 126.530612,16.0764302 L126.530612,17.7483163 C126.530612,18.1802201 126.313117,18.4393625 125.965656,18.4393625 Z M122.199281,15.4355406 C122.199281,13.3038859 121.268297,12.2366653 119.732571,12.2366653 C118.196845,12.2366653 117.212813,13.3401101 117.212813,15.4355406 L117.212813,15.5497861 L122.199281,15.5497861 L122.199281,15.4355406 Z" id="Shape" fill="#474747"></path>
                <path d="M148.159495,25.5 C143.727991,25.5 141.292517,22.5895376 141.292517,18.0091833 L141.292517,15.9936045 C141.292517,11.4104624 143.727991,8.5 148.159495,8.5 C152.590999,8.5 155,11.4076746 155,15.9936045 L155,18.0119711 C155,22.5895376 152.59894,25.5 148.159495,25.5 Z M150.594969,15.9936045 C150.594969,13.6602165 149.747847,12.4781896 148.159495,12.4781896 C146.571142,12.4781896 145.697548,13.6602165 145.697548,15.9936045 L145.697548,18.0119711 C145.697548,20.3453591 146.573789,21.555264 148.159495,21.555264 C149.7452,21.555264 150.594969,20.3453591 150.594969,18.0119711 L150.594969,15.9936045 Z" id="Shape" fill="#474747"></path>
                <path d="M137.593755,8.5 C136.302731,8.50169269 135.049583,8.97513437 134.035041,9.84448884 C134.010513,9.86368512 133.987075,9.88448015 133.964854,9.90675991 L133.964854,9.34065934 C133.963628,9.16435252 133.89256,8.9972053 133.769892,8.88211788 L133.769892,8.88211788 C133.689275,8.80539505 133.585818,8.76315103 133.478748,8.76323676 C133.41042,8.76301142 133.342914,8.77945341 133.281186,8.81135531 L133.231796,8.84532135 C132.230989,9.48784549 131.297768,10.1926407 130.517919,10.4020979 C129.904437,10.549284 129.738069,10.7191142 129.693878,11.0502831 L129.693878,24.8857809 C129.695301,25.2243608 129.947021,25.4984504 130.257969,25.5 L131.635703,25.5 C132.894147,25.4953868 133.938866,24.4403144 134.03764,23.0742591 C134.03764,23.0091575 134.03764,22.9412254 134.03764,22.8732934 L134.03764,13.4448884 C135.098781,12.7949542 136.293151,12.4464648 137.510571,12.4315684 L137.726329,12.4315684 C137.949277,12.4300122 138.129256,12.2327749 138.129252,11.99001 L138.129252,9.08591409 C138.127844,8.76406115 137.88933,8.50309113 137.593755,8.5 Z" id="Path" fill="#474747"></path>
                <path d="M61.6417056,25.2397545 L58.5798933,25.2397545 C58.2782323,25.2382258 58.0344551,24.9800226 58.0344585,24.6620427 L58.0344585,24.2009843 C56.9447217,25.0762378 55.6044774,25.5337588 54.2348601,25.4980583 C51.8634047,25.4980583 49.5578231,24.2870856 49.5578231,20.5430688 L49.5578231,20.2819875 C49.5683629,16.9101504 51.6078145,15.4075443 56.2848515,15.4075443 L57.7604237,15.4075443 L57.7604237,14.374329 C57.7604237,12.7328498 56.9962881,12.3856673 55.7104323,12.3856673 C53.9608252,12.3856673 52.0215017,12.5023206 51.1704128,12.5884219 L51.0360303,12.5884219 C50.902248,12.6042605 50.7688492,12.5554538 50.6731457,12.4556531 C50.5774421,12.3558523 50.529708,12.2157717 50.5432946,12.0745917 L50.5432946,9.74152485 C50.5431765,9.42036318 50.7683577,9.14858599 51.0702847,9.10548639 C52.6258195,8.72339287 54.2161003,8.52037547 55.8131954,8.5 C59.7498112,8.5 62.2108549,10.1664763 62.2108549,14.3798839 L62.2108549,24.6564878 C62.2124086,24.8145969 62.1524147,24.9664675 62.0448622,25.0766878 C61.9373096,25.1869081 61.791599,25.2458444 61.6417056,25.2397545 L61.6417056,25.2397545 Z M57.8421072,18.1850048 L56.2848515,18.1850048 C54.3692425,18.1850048 53.8791418,18.8765925 53.8791418,20.2875424 L53.8791418,20.5486237 C53.8791418,21.756819 54.453561,21.9873483 55.5997644,21.9873483 C56.3837731,21.9630307 57.1515806,21.7461939 57.8421072,21.3540873 L57.8421072,18.1850048 Z" id="Shape" fill="#474747"></path>
            </g>
        </g>
    </g>
</svg>