<?xml version="1.0" encoding="UTF-8"?>
<svg width="120px" height="37px" viewBox="0 0 120 37" version="1.1" xmlns="http://www.w3.org/2000/svg" xmlns:xlink="http://www.w3.org/1999/xlink">
    <!-- Generator: Sketch 54.1 (76490) - https://sketchapp.com -->
    <title>Dokan Logo color</title>
    <desc>Created with Sketch.</desc>
    <g id="Page-1" stroke="none" stroke-width="1" fill="none" fill-rule="evenodd">
        <g id="Home-Page-Design---WeDevs-U3" transform="translate(-900.000000, -1120.000000)" fill-rule="nonzero">
            <g id="Dokan-Logo-color" transform="translate(900.000000, 1120.000000)">
                <g id="Text" transform="translate(33.644860, 3.363636)" fill="#4D4D4F">
                    <path d="M20.0919626,23.9883333 C20.0919626,28.3498485 16.9601495,30.9678788 10.3050467,30.9678788 C3.64994393,30.9678788 0.518130841,28.3498485 0.518130841,23.9883333 L0.518130841,16.5771212 C0.518130841,12.2156061 3.65570093,9.60318182 10.3050467,9.60318182 C16.9543925,9.60318182 20.0919626,12.2212121 20.0919626,16.5771212 L20.0919626,23.9883333 Z M14.801271,17.1713636 C14.801271,14.7551515 14.0298318,13.3648485 10.2820187,13.3648485 C6.53420561,13.3648485 5.76276636,14.7551515 5.76276636,17.1713636 L5.76276636,23.3940909 C5.76276636,25.810303 6.53420561,27.2006061 10.2820187,27.2006061 C14.0298318,27.2006061 14.801271,25.8159091 14.801271,23.3940909 L14.801271,17.1713636 Z" id="Shape"></path>
                    <path d="M34.9508037,18.9933333 C41.0186916,21.0956061 41.2201869,25.8887879 43.7014579,30.250303 C42.7118003,30.4922244 41.7055709,30.6645874 40.6905421,30.7660606 C35.0717009,30.7660606 38.2495701,22.5195455 29.8616075,21.1740909 L29.8616075,30.7660606 C29.8616075,30.7660606 24.5709159,30.7660606 24.5709159,28.1872727 L24.5709159,0.201818182 C24.5709159,0.201818182 29.8616075,0.201818182 29.8616075,2.78060606 L29.8616075,17.2106061 C32.2622804,16.8518182 33.6094206,15.1083333 35.4401495,11.7390909 C36.2115888,10.3095455 37.7429533,9.79939394 39.3491589,9.79939394 C40.3277312,9.81717991 41.2980283,9.97780542 42.2276636,10.2759091 C39.9997009,13.2471212 38.6180187,17.5693939 34.9508037,18.9933333 Z" id="Shape"></path>
                    <path d="M57.9903551,16.1398485 C57.9903551,14.710303 57.1728598,13.4433333 54.0410467,13.4433333 C50.6213832,13.4433333 47.5298692,14.5925758 47.5298692,17.9281818 C46.3496822,16.3809091 45.9812336,15.1531818 45.9812336,14.0824242 C45.9812336,10.634697 50.7422804,9.59757576 54.0813458,9.59757576 C60.0628785,9.59757576 63.2407477,12.0530303 63.2407477,16.375303 L63.2407477,30.8837879 C62.2634707,30.4328958 61.1897713,30.2157141 60.1089346,30.250303 C58.0709533,30.250303 56.038729,30.9622727 53.7186542,30.9622727 C49.5275514,30.9622727 45.4170467,29.4542424 45.4170467,24.7395455 C45.4112897,17.3283333 56.3265794,19.2736364 57.9903551,16.1398485 Z M58.1112523,20.1818182 C57.1728598,22.2840909 50.6616822,21.1348485 50.6616822,24.6666667 C50.6616822,26.4493939 52.0030654,27.3631818 54.3231402,27.3631818 C55.6209763,27.3638851 56.9069075,27.1221964 58.1112523,26.6512121 L58.1112523,20.1818182 Z" id="Shape"></path>
                    <path d="M80.9550654,16.7340909 C80.9550654,14.6318182 79.9360748,13.4433333 77.0460561,13.4433333 C75.7361936,13.4566364 74.4344309,13.6452719 73.1773458,14.0039394 L73.1773458,30.7716667 C73.1773458,30.7716667 67.8866542,30.7716667 67.8866542,28.1928788 L67.8866542,9.60318182 C69.0282863,10.1422932 70.2793433,10.4257864 71.5481121,10.4328788 C73.5400374,10.4328788 75.4168224,9.60318182 77.616,9.60318182 C81.8071028,9.60318182 86.251514,10.9878788 86.251514,16.1454545 L86.251514,30.7716667 C86.251514,30.7716667 80.9608224,30.6931818 80.9608224,28.1928788 L80.9550654,16.7340909 Z" id="Shape"></path>
                </g>
                <g id="Icon" fill="#F1634C">
                    <path d="M2.46242285,1.86121212 C2.46242285,1.86121212 21.201975,0.504545455 21.201975,16.3809091 C21.201975,32.2572727 16.2485629,35.4415152 11.9064715,36.445 C11.9064715,36.445 29.9661435,40.7112121 29.9661435,18.3878788 C29.9661435,-3.93545455 6.93591959,-0.723181818 2.46242285,1.86121212 Z" id="Shape"></path>
                    <path d="M17.7111621,28.8543939 C17.7111621,28.8543939 15.9057662,35.0210606 10.4381591,35.800303 C4.97055193,36.5795455 3.95358843,33.67 0.154258508,33.8718182 C0.0667102768,33.0725732 0.310417534,32.2723605 0.830524748,31.6512981 C1.35063196,31.0302357 2.10343429,30.6405118 2.9194851,30.5698485 C5.99894199,30.1606061 11.7693528,30.9566667 15.6029624,28.579697 C15.6029624,28.579697 17.8882737,27.4136364 18.3167695,26.8474242 L17.7111621,28.8543939 Z" id="Shape"></path>
                    <path d="M2.18247223,2.97121212 L2.18247223,10.6122727 L2.18247223,10.6122727 L2.18247223,29.6280303 C2.37069179,29.5804751 2.56141861,29.5430455 2.75380004,29.5159091 C3.83364598,29.4043372 4.91884443,29.3500663 6.00465526,29.3533333 C7.14731088,29.3533333 8.36995239,29.3084848 9.60402045,29.1963636 L9.60402045,20.2266667 C9.60402045,17.2442424 9.409769,14.2001515 9.60402045,11.2233333 C9.8113342,9.42559471 11.0168872,7.88865032 12.7348968,7.23181818 C14.1063127,6.73300648 15.6293193,6.83086789 16.9227297,7.50090909 C12.6284914,4.48492806 7.4628361,2.89751662 2.18247223,2.97121212 Z" id="Shape"></path>
                </g>
            </g>
        </g>
    </g>
</svg>