<?xml version="1.0" encoding="UTF-8"?>
<svg width="154px" height="45px" viewBox="0 0 154 45" version="1.1" xmlns="http://www.w3.org/2000/svg" xmlns:xlink="http://www.w3.org/1999/xlink">
    <!-- Generator: Sketch 54.1 (76490) - https://sketchapp.com -->
    <title>Conversion Tracking Logo - Color</title>
    <desc>Created with Sketch.</desc>
    <defs>
        <linearGradient x1="15.8910198%" y1="85.3404255%" x2="84.1089802%" y2="14.6808511%" id="linearGradient-1">
            <stop stop-color="#AB4D9C" offset="0%"></stop>
            <stop stop-color="#B259A2" offset="37%"></stop>
            <stop stop-color="#BD6FAC" offset="84%"></stop>
        </linearGradient>
    </defs>
    <g id="Page-1" stroke="none" stroke-width="1" fill="none" fill-rule="evenodd">
        <g id="Home-Page-Design---WeDevs-U3" transform="translate(-1260.000000, -1508.000000)" fill-rule="nonzero">
            <g id="Conversion-Tracking-Logo---Color" transform="translate(1260.000000, 1508.000000)">
                <g id="Text" transform="translate(52.088235, 7.875000)">
                    <path d="M6.40385089,11.6485035 C3.76401981,11.6425787 1.44664574,9.94438984 0.720826012,7.48394093 C-0.00499371097,5.02349202 1.03583615,2.3943366 3.27331077,1.03631736 C5.51078539,-0.321701879 8.40514106,-0.0809791988 10.3712996,1.62665493 C10.7502793,1.96750416 10.7776912,2.53985072 10.4329207,2.91327465 C10.0828499,3.27183675 9.50309139,3.29821324 9.11991792,2.97301056 C7.77817696,1.80333011 5.7998185,1.63580776 4.26920239,2.56226434 C2.73858628,3.48872091 2.02535914,5.28541545 2.52044854,6.96756006 C3.01553795,8.64970467 4.5993789,9.81105833 6.40385089,9.81507042 C7.42848051,9.82153409 8.41697667,9.44842263 9.16731874,8.77198944 C9.54873308,8.43415895 10.1389597,8.45459359 10.4945417,8.81794014 C10.8430335,9.18768601 10.821954,9.75985603 10.4471409,10.1045599 C9.34593355,11.0912034 7.9033474,11.6420597 6.40385089,11.6485035 L6.40385089,11.6485035 Z" id="Shape" fill="#AB4D9C"></path>
                    <path d="M18.0123119,11.6301232 C15.61497,11.6319817 13.4527086,10.2332221 12.5343997,8.08648032 C11.6160909,5.93973855 12.1227162,3.46809754 13.8178935,1.82478023 C15.5130708,0.181462915 18.062712,-0.309663389 20.2772009,0.580551957 C22.4916897,1.4707673 23.9345915,3.56687939 23.9326744,5.89088028 C23.9274547,9.05847833 21.2798733,11.6250632 18.0123119,11.6301232 L18.0123119,11.6301232 Z M18.0123119,1.98047535 C16.3771519,1.97675872 14.9010446,2.92925293 14.2735236,4.39301966 C13.6460026,5.85678638 13.9909209,7.54292403 15.1471568,8.66378764 C16.3033927,9.78465125 18.0427417,10.1190175 19.5527021,9.51069408 C21.0626625,8.90237062 22.0452156,7.47142137 22.0413817,5.88628521 C22.0387862,3.72871808 20.2379555,1.97887191 18.0123119,1.97128521 L18.0123119,1.98047535 Z" id="Shape" fill="#AB4D9C"></path>
                    <path d="M34.8964843,10.7386796 L34.8964843,10.8765317 C34.8895872,10.8911189 34.8895872,10.9078951 34.8964843,10.9224824 C34.9033813,10.9370697 34.9033813,10.9538458 34.8964843,10.9684331 L34.8964843,11.0143838 C34.8924868,11.0247555 34.8924868,11.0361776 34.8964843,11.0465493 L34.8633037,11.0925 C34.8702008,11.1070873 34.8702008,11.1238634 34.8633037,11.1384507 C34.8633037,11.1384507 34.8633037,11.1706162 34.8633037,11.1844014 L34.8301231,11.2303521 C34.8268255,11.2408357 34.8268255,11.252034 34.8301231,11.2625176 C34.8301231,11.2625176 34.7969425,11.2625176 34.7969425,11.2946831 C34.7969425,11.3268486 34.7969425,11.3268486 34.763762,11.3268486 C34.7305814,11.3268486 34.763762,11.3590141 34.7305814,11.3727993 C34.6974008,11.3865845 34.7305814,11.3727993 34.6974008,11.4049648 C34.6642202,11.4371303 34.6974008,11.4049648 34.6642202,11.4371303 C34.6458951,11.4371303 34.6310397,11.4515313 34.6310397,11.4692958 L34.6310397,11.4692958 C34.5922199,11.4971979 34.5509858,11.5217964 34.5077975,11.5428169 C34.4603967,11.5428169 34.4319562,11.5887676 34.3845554,11.6025528 L34.3845554,11.6025528 C34.3391529,11.6203305 34.291183,11.6311811 34.2423529,11.6347183 L34.2091724,11.6347183 C34.1685109,11.6427644 34.1265917,11.6427644 34.0859302,11.6347183 L33.9769083,11.6347183 L33.9769083,11.6347183 L33.8963269,11.6347183 C33.8963269,11.6347183 33.8963269,11.6347183 33.8631464,11.6347183 C33.8299658,11.6347183 33.8157456,11.6347183 33.782565,11.6347183 C33.7717999,11.6312158 33.7601495,11.6312158 33.7493844,11.6347183 C33.7493844,11.6347183 33.7162038,11.6347183 33.7019836,11.6025528 C33.686936,11.6092389 33.6696304,11.6092389 33.6545828,11.6025528 C33.6545828,11.6025528 33.6214022,11.6025528 33.6071819,11.5703873 C33.5929617,11.5382218 33.5740014,11.5703873 33.5740014,11.5703873 C33.5740014,11.5703873 33.5266005,11.5703873 33.5123803,11.5382218 C33.4981601,11.5060563 33.5123803,11.5382218 33.4791997,11.5060563 C33.4460192,11.4738908 33.4317989,11.4738908 33.4175787,11.4463204 C33.3843981,11.4463204 33.3701778,11.4003697 33.3559576,11.3865845 L33.3559576,11.3865845 L27.3929343,3.87823944 L27.3929343,10.8259859 C27.3929343,11.3335434 26.9684929,11.745 26.4449179,11.745 C25.9213429,11.745 25.4969015,11.3335434 25.4969015,10.8259859 L25.4969015,1.10741197 C25.4969015,1.10741197 25.4969015,1.10741197 25.4969015,1.07524648 L25.4969015,1.02929577 C25.4900044,1.01470851 25.4900044,0.99793233 25.4969015,0.98334507 L25.4969015,0.937394366 C25.5037986,0.922807106 25.5037986,0.906030922 25.4969015,0.891443662 C25.4936039,0.880960104 25.4936039,0.869761727 25.4969015,0.859278169 C25.4969015,0.859278169 25.4969015,0.827112676 25.4969015,0.813327465 L25.5300821,0.767376761 C25.523185,0.752789501 25.523185,0.736013316 25.5300821,0.721426056 C25.5300821,0.721426056 25.5300821,0.689260563 25.5632627,0.675475352 C25.5592652,0.665103674 25.5592652,0.653681537 25.5632627,0.643309859 L25.5964432,0.611144366 C25.5928302,0.600708576 25.5928302,0.589414663 25.5964432,0.578978873 L25.643844,0.533028169 L25.6770246,0.500862676 L25.7102052,0.468697183 L25.7433858,0.43653169 L25.7433858,0.43653169 C25.7433858,0.43653169 25.7765663,0.404366197 25.7907866,0.404366197 C25.8050068,0.404366197 25.8239672,0.404366197 25.8239672,0.372200704 C25.8239672,0.340035211 25.8571477,0.372200704 25.871368,0.372200704 C25.8864156,0.365514645 25.9037212,0.365514645 25.9187688,0.372200704 L25.9661696,0.340035211 C25.9661696,0.340035211 25.9661696,0.340035211 25.9993502,0.340035211 C26.0143978,0.346721271 26.0317034,0.346721271 26.046751,0.340035211 L26.0941518,0.340035211 C26.1091995,0.333349152 26.1265051,0.333349152 26.1415527,0.340035211 L26.1889535,0.340035211 C26.2040011,0.333349152 26.2213067,0.333349152 26.2363543,0.340035211 L26.4212175,0.340035211 C26.4362651,0.346721271 26.4535707,0.346721271 26.4686183,0.340035211 L26.5160192,0.340035211 C26.5267181,0.343910406 26.5385007,0.343910406 26.5491997,0.340035211 L26.6108208,0.340035211 C26.6216352,0.343231908 26.633187,0.343231908 26.6440014,0.340035211 C26.6440014,0.340035211 26.6771819,0.340035211 26.6914022,0.340035211 C26.7056224,0.340035211 26.7245828,0.340035211 26.738803,0.340035211 L26.7719836,0.372200704 C26.7719836,0.372200704 26.8051642,0.372200704 26.8193844,0.372200704 C26.8336047,0.372200704 26.852565,0.372200704 26.852565,0.404366197 C26.852565,0.43653169 26.8857456,0.404366197 26.8999658,0.43653169 C26.914186,0.468697183 26.8999658,0.43653169 26.9331464,0.43653169 L26.9663269,0.468697183 L26.9995075,0.500862676 L27.0326881,0.533028169 C27.0326881,0.533028169 27.0658687,0.565193662 27.0658687,0.578978873 C27.0658687,0.592764085 27.0658687,0.578978873 27.0658687,0.578978873 L33.0288919,8.08732394 L33.0288919,1.13957746 C33.0288919,0.632020001 33.4533333,0.22056338 33.9769083,0.22056338 C34.5004834,0.22056338 34.9249248,0.632020001 34.9249248,1.13957746 L34.8964843,10.7386796 Z" id="Shape" fill="#AB4D9C"></path>
                    <path d="M46.3911833,1.58070423 L42.1251094,11.1154754 L42.1251094,11.1154754 C42.1105969,11.1537015 42.0897865,11.1893935 42.0634884,11.221162 L42.0634884,11.221162 C42.041577,11.2555702 42.0144074,11.2865566 41.982907,11.3130634 C41.9641854,11.3447928 41.9361298,11.3703902 41.9023256,11.3865845 L41.9023256,11.3865845 C41.8744263,11.4115368 41.8423735,11.4317338 41.8075239,11.4463204 C41.8075239,11.4463204 41.7743434,11.4463204 41.7743434,11.4784859 C41.7456805,11.4960635 41.713256,11.5070649 41.6795417,11.5106514 L41.6795417,11.5106514 C41.6463611,11.5106514 41.6179207,11.5106514 41.5847401,11.5428169 L41.5515595,11.5428169 C41.5183789,11.5428169 41.4899384,11.5428169 41.4567579,11.5749824 L41.4235773,11.5749824 C41.3761765,11.5749824 41.347736,11.5749824 41.3003352,11.5749824 L41.1913133,11.5749824 L41.1581327,11.5749824 C41.1249521,11.5749824 41.0775513,11.5749824 41.0491108,11.5428169 L41.0491108,11.5428169 C41.0134684,11.5299855 40.977062,11.5192442 40.9400889,11.5106514 L40.9400889,11.5106514 C40.9400889,11.5106514 40.9400889,11.5106514 40.9069083,11.5106514 C40.8784611,11.5091165 40.8515367,11.4976974 40.831067,11.4784859 L40.7647059,11.4876761 C40.7297676,11.4732504 40.6976878,11.4530364 40.6699042,11.4279401 L40.6699042,11.4279401 L40.5940629,11.354419 C40.5680971,11.3275442 40.5472359,11.2964319 40.5324419,11.2625176 L40.5324419,11.2625176 C40.5324419,11.2303521 40.4992613,11.1889965 40.485041,11.156831 C40.4708208,11.1246655 40.485041,11.156831 40.485041,11.156831 L36.2189672,1.62205986 C36.0208973,1.15888223 36.2423561,0.627284419 36.7166758,0.427341549 C37.1880748,0.23239649 37.7339485,0.435924944 37.9490971,0.886848592 L41.3382558,8.50088028 L44.7416347,0.886848592 C44.8354153,0.535098932 45.1341533,0.269922925 45.5038409,0.210273285 C45.8735284,0.150623645 46.2447652,0.307698204 46.4510218,0.61103642 C46.6572784,0.914374635 46.6598349,1.30703182 46.4575445,1.61286972 L46.3911833,1.58070423 Z" id="Shape" fill="#AB4D9C"></path>
                    <path d="M49.4959371,6.84665493 L49.4959371,9.84264085 L53.9610944,9.84264085 C54.4846694,9.84264085 54.9091108,10.2540975 54.9091108,10.7616549 C54.8937309,11.2584139 54.4737608,11.6533223 53.9610944,11.6530986 L48.5574008,11.6530986 C48.3131273,11.6543287 48.0784916,11.5608041 47.9057618,11.3933586 C47.733032,11.2259131 47.6365559,10.9984555 47.6378249,10.7616549 L47.6378249,1.07524648 C47.6375941,0.578263854 48.0449651,0.171141824 48.5574008,0.156232394 L53.9610944,0.156232394 C54.4846694,0.156232394 54.9091108,0.567689015 54.9091108,1.07524648 C54.9091108,1.58280394 54.4846694,1.99426056 53.9610944,1.99426056 L49.4959371,1.99426056 L49.4959371,5.05457746 L53.9610944,5.05457746 C54.3377612,4.9804319 54.7233338,5.1340932 54.9372938,5.44361975 C55.1512537,5.7531463 55.1512537,6.15727623 54.9372938,6.46680279 C54.7233338,6.77632934 54.3377612,6.92999063 53.9610944,6.85584507 L49.4959371,6.84665493 Z" id="Shape" fill="#AB4D9C"></path>
                    <path d="M63.2042544,11.5428169 C63.0709966,11.6145796 62.9205837,11.6510324 62.7681669,11.6485035 C62.4246301,11.6525904 62.1092663,11.46487 61.9576129,11.1660211 L59.6634131,6.94315141 L57.6820588,6.94315141 L57.6820588,10.7432746 C57.6820588,11.2368743 57.2692896,11.6370158 56.7601129,11.6370158 C56.2509362,11.6370158 55.8381669,11.2368743 55.8381669,10.7432746 L55.8381669,1.14417254 C55.8511643,0.67461665 56.2273326,0.290137849 56.710342,0.252728873 L56.710342,0.160827465 L60.2701436,0.160827465 C62.1955715,0.230501736 63.7122359,1.77621785 63.6877428,3.64389085 C63.6598888,4.95974074 62.8322925,6.13521312 61.5784063,6.63987676 L63.5929412,10.3159331 C63.8281996,10.7593911 63.6557228,11.3038116 63.2042544,11.5428169 Z M57.6773187,5.15566901 L60.1469015,5.15566901 C61.0374521,5.16770993 61.7834478,4.5049685 61.848591,3.64389085 C61.8614758,2.76778399 61.171093,2.03219852 60.2701436,1.96209507 L57.6773187,1.96209507 L57.6773187,5.15566901 Z" id="Shape" fill="#AB4D9C"></path>
                    <path d="M73.3243297,8.58818662 C73.2153078,10.3572887 71.5610192,11.3865845 70.0773735,11.6025528 C69.8241846,11.6328466 69.5693301,11.6481918 69.3142202,11.6485035 C67.7968694,11.6663641 66.3454483,11.0482811 65.3325513,9.95292254 C65.009137,9.56948508 65.0573526,9.00656632 65.4415732,8.68008803 C65.8292554,8.36358507 66.4080235,8.41085404 66.7356156,8.78577465 C67.5244302,9.59784539 68.6743419,9.98259138 69.8119289,9.81507042 C70.5750821,9.7093838 71.4188167,9.25447183 71.4662175,8.4825 C71.4736407,7.75495056 70.9391199,7.12810261 70.2006156,6.99829225 C69.8620833,6.93089232 69.5176031,6.89549757 69.1720178,6.89260563 C68.2719869,6.91690911 67.3836491,6.69045561 66.6123735,6.24010563 C65.4807314,5.51145077 64.9376961,4.17613519 65.2519699,2.89489437 C65.6926543,1.53512166 66.9044475,0.544846012 68.3614637,0.353820423 C69.8071419,0.162304478 71.2723261,0.53225879 72.4379343,1.3831162 C72.7681313,1.55836428 72.960082,1.90640213 72.9270272,2.26992123 C72.8939725,2.63344034 72.6421757,2.94355935 72.2854457,3.06010857 C71.9287156,3.17665779 71.5346473,3.07755291 71.2813543,2.80758803 C70.5206256,2.24622687 69.5585006,2.00601338 68.6126881,2.14130282 C67.8902057,2.23019627 67.2840955,2.71239467 67.0532011,3.38197183 C66.946826,3.92278542 67.1957185,4.47114494 67.6788919,4.76049296 C68.1690713,5.00857719 68.7195582,5.1229299 69.2715595,5.09133803 C69.7222363,5.10618795 70.170893,5.1569043 70.6130027,5.24297535 C72.2323959,5.57564033 73.3740464,6.98419866 73.3243297,8.58818662 L73.3243297,8.58818662 Z" id="Shape" fill="#AB4D9C"></path>
                    <path d="M76.1304583,11.6301232 C75.6068833,11.6301232 75.1824419,11.2186666 75.1824419,10.7111092 L75.1824419,1.06146127 C75.1824419,0.553903804 75.6068833,0.142447183 76.1304583,0.142447183 C76.6540333,0.142447183 77.0784747,0.553903804 77.0784747,1.06146127 L77.0784747,10.7111092 C77.0784747,11.2186666 76.6540333,11.6301232 76.1304583,11.6301232 Z" id="Shape" fill="#AB4D9C"></path>
                    <path d="M84.89013,11.6301232 C82.492788,11.6319817 80.3305266,10.2332221 79.4122178,8.08648032 C78.493909,5.93973855 79.0005343,3.46809754 80.6957115,1.82478023 C82.3908888,0.181462915 84.9405301,-0.309663389 87.1550189,0.580551957 C89.3695078,1.4707673 90.8124096,3.56687939 90.8104925,5.89088028 C90.8052727,9.05847833 88.1576914,11.6250632 84.89013,11.6301232 L84.89013,11.6301232 Z M84.89013,1.98047535 C83.2549699,1.97675872 81.7788626,2.92925293 81.1513417,4.39301966 C80.5238207,5.85678638 80.8687389,7.54292403 82.0249749,8.66378764 C83.1812108,9.78465125 84.9205597,10.1190175 86.4305201,9.51069408 C87.9404805,8.90237062 88.9230336,7.47142137 88.9191997,5.88628521 C88.9166043,3.72871808 87.1157735,1.97887191 84.89013,1.97128521 L84.89013,1.98047535 Z" id="Shape" fill="#AB4D9C"></path>
                    <path d="M101.783782,10.7386796 L101.783782,10.8765317 C101.776885,10.8911189 101.776885,10.9078951 101.783782,10.9224824 C101.79068,10.9370697 101.79068,10.9538458 101.783782,10.9684331 L101.783782,11.0143838 C101.779785,11.0247555 101.779785,11.0361776 101.783782,11.0465493 L101.750602,11.0925 C101.757499,11.1070873 101.757499,11.1238634 101.750602,11.1384507 C101.750602,11.1384507 101.750602,11.1706162 101.750602,11.1844014 L101.717421,11.2303521 C101.714124,11.2408357 101.714124,11.252034 101.717421,11.2625176 C101.717421,11.2625176 101.684241,11.2625176 101.684241,11.2946831 C101.684241,11.3268486 101.684241,11.3268486 101.65106,11.3268486 C101.61788,11.3268486 101.65106,11.3590141 101.61788,11.3727993 C101.584699,11.3865845 101.61788,11.3727993 101.584699,11.4049648 C101.551518,11.4371303 101.584699,11.4049648 101.551518,11.4371303 C101.533193,11.4371303 101.518338,11.4515313 101.518338,11.4692958 L101.518338,11.4692958 C101.479381,11.4970011 101.438165,11.5215892 101.395096,11.5428169 C101.347695,11.5428169 101.314514,11.5887676 101.271854,11.6025528 L101.271854,11.6025528 C101.226451,11.6203305 101.178481,11.6311811 101.129651,11.6347183 L100.963748,11.6347183 C100.9231,11.6428928 100.881154,11.6428928 100.840506,11.6347183 L100.731484,11.6347183 L100.731484,11.6347183 L100.650903,11.6347183 C100.650903,11.6347183 100.650903,11.6347183 100.617722,11.6347183 C100.584542,11.6347183 100.570321,11.6347183 100.541881,11.6347183 C100.531067,11.6315216 100.519515,11.6315216 100.5087,11.6347183 C100.5087,11.6347183 100.47552,11.6347183 100.4613,11.6025528 C100.446252,11.6092389 100.428946,11.6092389 100.413899,11.6025528 C100.413899,11.6025528 100.380718,11.6025528 100.366498,11.5703873 C100.352278,11.5382218 100.333317,11.5703873 100.333317,11.5703873 C100.333317,11.5703873 100.285917,11.5703873 100.271696,11.5382218 C100.257476,11.5060563 100.271696,11.5382218 100.238516,11.5060563 C100.205335,11.4738908 100.191115,11.4738908 100.176895,11.4463204 C100.143714,11.4463204 100.129494,11.4003697 100.115274,11.3865845 L100.115274,11.3865845 L94.1522503,3.87823944 L94.1522503,10.8259859 C94.1522503,11.3335434 93.7278089,11.745 93.2042339,11.745 C92.6806589,11.745 92.2562175,11.3335434 92.2562175,10.8259859 L92.2562175,1.10741197 C92.2562175,1.10741197 92.2562175,1.10741197 92.2562175,1.07524648 L92.2562175,1.02929577 C92.2493205,1.01470851 92.2493205,0.99793233 92.2562175,0.98334507 L92.2562175,0.937394366 C92.2631146,0.922807106 92.2631146,0.906030922 92.2562175,0.891443662 C92.2529199,0.880960104 92.2529199,0.869761727 92.2562175,0.859278169 C92.2562175,0.859278169 92.2562175,0.827112676 92.2562175,0.813327465 L92.2893981,0.767376761 C92.282501,0.752789501 92.282501,0.736013316 92.2893981,0.721426056 C92.2893981,0.721426056 92.2893981,0.689260563 92.3225787,0.675475352 C92.3185812,0.665103674 92.3185812,0.653681537 92.3225787,0.643309859 L92.3557592,0.611144366 C92.3521462,0.600708576 92.3521462,0.589414663 92.3557592,0.578978873 L92.4031601,0.533028169 L92.4363406,0.500862676 L92.4695212,0.468697183 L92.5027018,0.43653169 L92.5027018,0.43653169 C92.5027018,0.43653169 92.5358824,0.404366197 92.5501026,0.404366197 C92.5643228,0.404366197 92.5832832,0.404366197 92.5832832,0.372200704 C92.5832832,0.340035211 92.6164637,0.372200704 92.630684,0.372200704 C92.6457316,0.365514645 92.6630372,0.365514645 92.6780848,0.372200704 L92.7254856,0.340035211 C92.7254856,0.340035211 92.7254856,0.340035211 92.7586662,0.340035211 C92.7737138,0.346721271 92.7910194,0.346721271 92.806067,0.340035211 L92.8534679,0.340035211 C92.8685155,0.333349152 92.8858211,0.333349152 92.9008687,0.340035211 L92.9482695,0.340035211 C92.9633171,0.333349152 92.9806227,0.333349152 92.9956703,0.340035211 L93.1852736,0.340035211 C93.2003212,0.346721271 93.2176268,0.346721271 93.2326744,0.340035211 L93.2800752,0.340035211 C93.2907742,0.343910406 93.3025568,0.343910406 93.3132558,0.340035211 L93.3748769,0.340035211 C93.3856913,0.343231908 93.3972431,0.343231908 93.4080575,0.340035211 C93.4080575,0.340035211 93.441238,0.340035211 93.4554583,0.340035211 C93.4696785,0.340035211 93.4886389,0.340035211 93.5028591,0.340035211 L93.5360397,0.372200704 C93.5360397,0.372200704 93.5692202,0.372200704 93.5834405,0.372200704 C93.5976607,0.372200704 93.6166211,0.372200704 93.6166211,0.404366197 C93.6166211,0.43653169 93.6498016,0.404366197 93.6640219,0.43653169 C93.6782421,0.468697183 93.6640219,0.43653169 93.6972025,0.43653169 L93.730383,0.468697183 L93.7635636,0.500862676 L93.7967442,0.533028169 C93.7967442,0.533028169 93.8299248,0.565193662 93.8299248,0.578978873 C93.8299248,0.592764085 93.8299248,0.578978873 93.8299248,0.578978873 L99.792948,8.08732394 L99.792948,1.13957746 C99.792948,0.632020001 100.217389,0.22056338 100.740964,0.22056338 C101.264539,0.22056338 101.688981,0.632020001 101.688981,1.13957746 L101.783782,10.7386796 Z" id="Shape" fill="#AB4D9C"></path>
                    <polygon id="Shape" fill="#4E4E50" points="0.184863201 17.6450704 9.0725171 17.6450704 9.0725171 18.3159507 5.03396717 18.3159507 5.03396717 29.1741021 4.22815321 29.1741021 4.22815321 18.3159507 0.189603283 18.3159507"></polygon>
                    <path d="M10.684145,29.1741021 L9.87833105,29.1741021 L9.87833105,24.5055106 C9.87833105,22.1114789 11.0112107,20.5077993 13.6940971,20.5077993 L13.6940971,21.1786796 C11.7980643,21.1786796 10.684145,22.0976937 10.684145,24.5101056 L10.684145,29.1741021 Z" id="Shape" fill="#4E4E50"></path>
                    <path d="M23.5487278,29.1741021 L22.752394,29.1741021 L22.752394,27.5704225 C21.9440832,28.7278732 20.5764726,29.3985782 19.1357114,29.3441197 C16.2490014,29.3441197 14.7132148,27.2349824 14.7132148,24.8455458 C14.7132148,22.4561092 16.2490014,20.3469718 19.1357114,20.3469718 C20.5786948,20.2825497 21.9510469,20.95558 22.752394,22.120669 L22.752394,20.5123944 L23.5582079,20.5123944 L23.5487278,29.1741021 Z M19.1262312,21.008662 C17.0453352,21.008662 15.5095486,22.446919 15.5095486,24.8409507 C15.5095486,27.2349824 17.0453352,28.6732394 19.1262312,28.6732394 C21.2071272,28.6732394 22.7429138,27.2349824 22.7429138,24.8409507 C22.7429138,22.446919 21.2071272,21.008662 19.1262312,21.008662 Z" id="Shape" fill="#4E4E50"></path>
                    <path d="M29.5828523,20.3377817 C31.1977886,20.2644762 32.7073356,21.1148105 33.4412791,22.51125 L32.7350068,22.8466901 C32.1503667,21.6848159 30.9156162,20.9648302 29.5828523,21.008662 C27.5019562,21.008662 25.9661696,22.446919 25.9661696,24.8409507 C25.9661696,27.2349824 27.5019562,28.6732394 29.5828523,28.6732394 C30.9156162,28.7170712 32.1503667,27.9970855 32.7350068,26.8352113 L33.4412791,27.1706514 C32.7073356,28.5670909 31.1977886,29.4174252 29.5828523,29.3441197 C26.6961423,29.3441197 25.1603557,27.2349824 25.1603557,24.8455458 C25.1603557,22.4561092 26.6961423,20.3377817 29.5828523,20.3377817 Z" id="Shape" fill="#4E4E50"></path>
                    <polygon id="Shape" fill="#4E4E50" points="35.0766074 17.6450704 35.8824213 17.6450704 35.8824213 24.3860387 40.3238782 20.5032042 41.4330575 20.5032042 37.4134679 24.0184331 43.3480506 29.169507 42.2388714 29.169507 36.8683584 24.5009155 35.8776813 25.3555986 35.8776813 29.169507 35.0766074 29.169507"></polygon>
                    <path d="M45.5552075,19.1660387 C45.9265427,19.1929938 46.1887448,19.3559146 46.1511555,19.5363345 C46.1135662,19.7167544 45.7894121,19.8511881 45.4143996,19.8418833 C45.0393871,19.8325784 44.7454735,19.682809 44.7463759,19.5014789 C44.7817561,19.3019397 45.1413897,19.1527918 45.5552075,19.1660387 Z M44.7463759,20.5032042 L46.3735548,20.5032042 L46.3735548,29.169507 L44.7463759,29.169507 L44.7463759,20.5032042 Z" id="Shape" fill="#4E4E50"></path>
                    <path d="M55.8097264,24.8409507 C55.8097264,22.446919 54.2739398,21.008662 52.1930438,21.008662 C50.1121477,21.008662 48.6379822,22.3871831 48.5763611,24.6847183 L48.5763611,29.1832923 L47.7705472,29.1832923 L47.7705472,20.5169894 L48.5763611,20.5169894 L48.5763611,22.1252641 C49.3827974,20.9657519 50.7516799,20.2944232 52.1930438,20.3515669 C55.0797538,20.3515669 56.6155404,22.4607042 56.6155404,24.8501408 L56.6155404,29.1832923 L55.8097264,29.1832923 L55.8097264,24.8409507 Z" id="Shape" fill="#4E4E50"></path>
                    <path d="M62.4553215,20.3377817 C63.8954827,20.2859849 65.2618369,20.9560737 66.0720041,22.1114789 L66.0720041,20.5032042 L66.8825581,20.5032042 L66.8825581,28.0666901 C66.8825581,30.4607218 65.3467715,32.5652641 62.4600616,32.5652641 C60.8451252,32.6385696 59.3355782,31.7882353 58.6016347,30.3917958 L59.307907,30.0563556 C59.8925471,31.2182299 61.1272976,31.9382156 62.4600616,31.8943838 C64.5409576,31.8943838 66.0767442,30.4561268 66.0767442,28.0620951 L66.0767442,27.5704225 C65.2649223,28.7194682 63.9002671,29.3826577 62.4648016,29.3257394 C59.5780917,29.3257394 58.0423051,27.2166021 58.0423051,24.8271655 C58.0423051,22.4377289 59.5638714,20.3377817 62.4553215,20.3377817 Z M62.4553215,28.6686444 C64.5362175,28.6686444 66.0720041,27.2303873 66.0720041,24.8363556 C66.0720041,22.4423239 64.5362175,21.0040669 62.4600616,21.0040669 C60.3839056,21.0040669 58.8433789,22.4423239 58.8433789,24.8363556 C58.8433789,27.2303873 60.3744254,28.6686444 62.4553215,28.6686444 Z" id="Shape" fill="#4E4E50"></path>
                </g>
                <g id="Icon">
                    <path d="M35.595954,20.61 L35.5959546,36.7768421 C35.5955095,37.2789274 35.8463555,37.7466719 36.261517,38.0178947 C37.0868618,37.4751009 37.8393997,36.8254506 38.500227,36.0852632 L38.500227,22.0878947 C37.5570053,21.5461897 36.5876985,21.0529394 35.595954,20.61 L35.595954,20.61 Z" id="Shape" fill="#AF8FC2"></path>
                    <path d="M28.1491022,18.4357895 L28.1491022,40.8268421 C28.1459015,41.1724337 28.2629619,41.5080302 28.4795562,41.7742105 C29.3266357,41.4757895 30.1923323,41.1394737 31.0487203,40.7794737 L31.0487203,19.0373684 C30.093264,18.7850163 29.1253759,18.5842101 28.1491022,18.4357895 Z" id="Shape" fill="#AF8FC2"></path>
                    <path d="M20.706904,18.3505263 L20.706904,43.29 C21.5453356,43.3832853 22.3923024,43.3609787 23.224871,43.2236842 L23.6065222,43.1478947 L23.6065222,18.1468421 C22.6198142,18.1657895 21.6532749,18.2336842 20.706904,18.3505263 Z" id="Shape" fill="#AF8FC2"></path>
                    <path d="M16.164324,19.26 C15.158999,19.5394737 14.1909082,19.8568421 13.2600516,20.2073684 L13.2600516,40.9026316 C14.2005348,41.3702821 15.1636494,41.7892379 16.1457069,42.1578947 C16.1491692,42.0995268 16.1491692,42.0409995 16.1457069,41.9826316 L16.164324,19.26 Z" id="Shape" fill="#AF8FC2"></path>
                    <path d="M8.7221259,36.3552632 L8.7221259,22.2631579 C7.66094943,22.8315789 6.69285862,23.4094737 5.81785346,23.9731579 L5.81785346,33.8352632 C6.6695872,35.1663158 7.5352838,36.4405263 8.29393189,37.3926316 C8.56590613,37.1181235 8.7198819,36.7450926 8.7221259,36.3552632 Z" id="Shape" fill="#AF8FC2"></path>
                    <g id="Group" opacity="0.15" transform="translate(1.396285, 17.526316)" fill="#B7B4D9">
                        <path d="M42.0933333,7.99578947 C22.8944169,-7.56473684 4.7520227,5.73157895 0.349071207,9.45947368 C0.349071207,9.45947368 6.00867905,19.7194737 8.26135191,21.3015789 C10.5140248,22.8836842 17.1743034,26.5547368 21.842549,25.7163158 C26.5107946,24.8778947 36.573354,21.1073684 37.9696388,17.19 C39.1666794,14.045967 40.5436012,10.9759751 42.0933333,7.99578947 L42.0933333,7.99578947 Z" id="Shape"></path>
                        <path d="M20.3671414,26.0526316 C15.7547472,26.0526316 10.1277193,22.8552632 8.13568627,21.4768421 C5.88301342,19.9042105 0.404922601,10.0042105 0.172208462,9.58263158 L0.0884313725,9.43105263 L0.21875129,9.31736842 C2.32714138,7.53157895 8.0472549,3.15947368 15.6244272,1.31210526 C25.0493498,-1.00894737 33.9995356,1.18894737 42.2236533,7.85368421 L42.3586275,7.96263158 L42.2795046,8.11894737 C40.7327063,11.0778848 39.3558296,14.1256337 38.1558101,17.2468421 C36.7595253,21.2210526 26.6550774,25.0673684 21.8658204,25.9342105 C21.3706167,26.0181454 20.8691403,26.0577705 20.3671414,26.0526316 Z M0.619019608,9.53052632 C1.33577915,10.8142105 6.34378741,19.7147368 8.36840041,21.1310526 C10.3930134,22.5473684 17.1556863,26.3415789 21.7960062,25.5126316 C26.4363261,24.6836842 36.4104541,20.9226316 37.7648504,17.1 C38.9475981,14.0143177 40.3058435,11.0013262 41.8326935,8.07631579 C23.1969453,-6.92526316 5.74803922,5.21052632 0.619019608,9.51157895 L0.619019608,9.53052632 Z" id="Shape"></path>
                    </g>
                    <path d="M21.7634262,43.5789474 C17.151032,43.5789474 11.5240041,40.3815789 9.5319711,39.0031579 C7.27929825,37.4305263 1.80120743,27.5305263 1.56849329,27.1089474 L1.4847162,26.9573684 L1.61503612,26.8436842 C4.22963126,24.6509478 7.09966258,22.7943366 10.1602993,21.3157895 C18.3099484,17.3984211 30.7322291,14.9163158 43.6199381,25.3657895 L43.7549123,25.4747368 L43.6757895,25.6310526 C42.1289911,28.5899901 40.7521144,31.637739 39.5520949,34.7589474 C38.1558101,38.7331579 28.0513622,42.5794737 23.2621053,43.4463158 C22.7673136,43.5350123 22.2658343,43.5793927 21.7634262,43.5789474 L21.7634262,43.5789474 Z M2.01530444,27.0568421 C2.73206398,28.3405263 7.74007224,37.2410526 9.76468524,38.6573684 C11.7892982,40.0736842 18.5519711,43.8678947 23.192291,43.0389474 C27.8326109,42.21 37.8067389,38.4489474 39.1611352,34.6263158 C40.343883,31.5406335 41.7021283,28.5276419 43.2289783,25.6026316 C30.5553664,15.4184211 18.3518369,17.8578947 10.337162,21.7136842 C7.36304014,23.1415827 4.56892493,24.9292194 2.01530444,27.0378947 L2.01530444,27.0568421 Z" id="Shape" fill="#B7B4D9"></path>
                    <path d="M36.261517,38.0131579 C36.7075285,38.3094797 37.2774075,38.3325691 37.7451528,38.0732695 C38.2128981,37.8139699 38.5029295,37.31418 38.500227,36.7721053 L38.5002458,36.0805263 C37.8393997,36.8207138 37.0868618,37.470364 36.261517,38.0131579 L36.261517,38.0131579 Z" id="Shape" fill="#AF8FC2"></path>
                    <g id="Group" opacity="0.35" transform="translate(35.372549, 14.684211)" fill="#B7B4D9">
                        <path d="M3.12767802,1.94684211 C3.12767802,1.13062338 2.47753449,0.468947368 1.6755418,0.468947368 C0.873549105,0.468947368 0.223405573,1.13062338 0.223405573,1.94684211 L0.223405573,5.92578947 C1.21514944,6.36872886 2.18445625,6.86197922 3.12767802,7.40368421 L3.12767802,1.94684211 Z" id="Shape"></path>
                    </g>
                    <g id="Group" opacity="0.35" transform="translate(27.925697, 10.421053)" fill="#B7B4D9">
                        <path d="M3.12767802,1.74315789 C3.12767802,0.92693917 2.47753449,0.265263158 1.6755418,0.265263158 C0.873549105,0.265263158 0.223405573,0.92693917 0.223405573,1.74315789 L0.223405573,8.01473684 C1.20098918,8.15830855 2.1704325,8.35437156 3.12767802,8.60210526 L3.12767802,1.74315789 Z" id="Shape"></path>
                    </g>
                    <path d="M29.6012384,42.3047368 C30.4032311,42.3047368 31.0533746,41.6430608 31.0533746,40.8268421 L31.0533746,40.7605263 C30.1969866,41.1252632 29.33129,41.4568421 28.4842105,41.7552632 C28.75622,42.1003131 29.1665797,42.3021718 29.6012384,42.3047368 L29.6012384,42.3047368 Z" id="Shape" fill="#AF8FC2"></path>
                    <path d="M20.706904,43.29 L20.706904,43.4557895 C20.706904,44.2720082 21.3570476,44.9336842 22.1590402,44.9336842 C22.9610329,44.9336842 23.6111765,44.2720082 23.6111765,43.4557895 L23.6111765,43.1478947 L23.2295253,43.2236842 C22.3954321,43.3614068 21.5468711,43.3837141 20.706904,43.29 L20.706904,43.29 Z" id="Shape" fill="#AF8FC2"></path>
                    <g id="Group" opacity="0.35" transform="translate(20.478844, 5.684211)" fill="#B7B4D9">
                        <path d="M3.1323323,1.92789474 C3.1323323,1.11167601 2.48218877,0.45 1.68019608,0.45 C0.878203388,0.45 0.228059856,1.11167601 0.228059856,1.92789474 L0.228059856,12.6663158 C1.15891641,12.5526316 2.12700722,12.4847368 3.1323323,12.4626316 L3.1323323,1.92789474 Z" id="Shape"></path>
                    </g>
                    <g id="Group" opacity="0.35" transform="translate(13.031992, 10.421053)" fill="#B7B4D9">
                        <path d="M3.1323323,1.74315789 C3.1323323,0.92693917 2.48218877,0.265263158 1.68019608,0.265263158 C0.878203388,0.265263158 0.228059856,0.92693917 0.228059856,1.74315789 L0.228059856,9.79578947 C1.15891641,9.44526316 2.12700722,9.12789474 3.1323323,8.84842105 L3.1323323,1.74315789 Z" id="Shape"></path>
                    </g>
                    <path d="M13.2647059,41.9873684 C13.2601701,42.7702269 13.8580729,43.4199599 14.6259341,43.4665967 C15.3937952,43.5132335 16.0633812,42.9404827 16.1503612,42.1626316 C15.1683037,41.7939748 14.2051891,41.3750189 13.2646802,40.9073684 L13.2647059,41.9873684 Z" id="Shape" fill="#AF8FC2"></path>
                    <path d="M5.81785346,36.3552632 C5.81829104,36.9520635 6.17137575,37.4900272 6.71290756,37.7189773 C7.25443936,37.9479273 7.8781285,37.8229263 8.29393189,37.4021053 C7.53993808,36.4547368 6.6695872,35.1805263 5.81785346,33.8447368 L5.81785346,36.3552632 Z" id="Shape" fill="#AF8FC2"></path>
                    <g id="Group" opacity="0.35" transform="translate(5.585139, 14.684211)" fill="#B7B4D9">
                        <path d="M3.13698658,1.94210526 C3.13698658,1.12588654 2.48684305,0.464210526 1.68485036,0.464210526 C0.882857671,0.464210526 0.232714138,1.12588654 0.232714138,1.94210526 L0.232714138,9.30315789 C1.10306502,8.73947368 2.09442724,8.16157895 3.13698658,7.59315789 L3.13698658,1.94210526 Z" id="Shape"></path>
                    </g>
                    <g id="Group" opacity="0.15" transform="translate(4.188854, 26.052632)" fill="#EDA2C0">
                        <path d="M0.130319917,7.57894737 C9.21082559,2.22157895 22.2102374,-2.13631579 37.7462332,1.32157895 C37.7462332,1.32157895 33.4084417,13.0642105 30.5134778,13.7463158 C27.6185139,14.4284211 26.7900516,17.5642105 21.5679463,17.6115789 C16.3458411,17.6589474 7.81919505,16.9957895 5.27795666,14.3763158 C2.73671827,11.7568421 0.130319917,7.57894737 0.130319917,7.57894737 Z" id="Shape"></path>
                    </g>
                    <path d="M9.30856553,40.5568421 C6.78594427,37.9515789 4.15162023,33.7642105 4.12369453,33.7215789 L4.00733746,33.5368421 L4.19350877,33.4278947 C12.4408978,28.5631579 25.6869866,23.5231579 41.9583591,27.1468421 L41.8699278,27.5589474 C25.8498865,23.9921053 12.7853148,28.89 4.58912281,33.6789474 C6.07202014,36.0154699 7.74905073,38.2182758 9.60178535,40.2631579 L9.30856553,40.5568421 Z" id="Shape" fill="#EDA2C0"></path>
                    <ellipse id="Oval" fill="#F16C4D" cx="12.5246749" cy="29.7473684" rx="2.25732714" ry="2.29736842"></ellipse>
                    <path d="M12.5246749,28.08 C13.4294872,28.08 14.1629825,28.8265063 14.1629825,29.7473684 C14.1629825,30.6682306 13.4294872,31.4147368 12.5246749,31.4147368 C11.6198627,31.4147368 10.8863674,30.6682306 10.8863674,29.7473684 C10.8863674,28.8265063 11.6198627,28.08 12.5246749,28.08 L12.5246749,28.08 Z M12.5246749,26.8152632 C10.9361125,26.8152632 9.64832817,28.1258906 9.64832817,29.7426316 C9.64832817,31.3593725 10.9361125,32.67 12.5246749,32.67 C14.1132374,32.67 15.4010217,31.3593725 15.4010217,29.7426316 C15.3984591,28.1269721 14.1121747,26.8178712 12.5246749,26.8152632 L12.5246749,26.8152632 Z" id="Shape" fill="#FFFFFF"></path>
                    <ellipse id="Oval" fill="#8C8DC4" cx="29.6012384" cy="18.6631579" rx="2.25732714" ry="2.29736842"></ellipse>
                    <path d="M29.6012384,16.9957895 C30.5060507,16.9957895 31.2395459,17.7422957 31.2395459,18.6631579 C31.2395459,19.58402 30.5060507,20.3305263 29.6012384,20.3305263 C28.6964261,20.3305263 27.9629309,19.58402 27.9629309,18.6631579 C27.9629309,17.7422957 28.6964261,16.9957895 29.6012384,16.9957895 L29.6012384,16.9957895 Z M29.6012384,15.7310526 C28.0126759,15.7310526 26.7248916,17.0416801 26.7248916,18.6584211 C26.7248916,20.275162 28.0126759,21.5857895 29.6012384,21.5857895 C31.1898008,21.5857895 32.4775851,20.275162 32.4775851,18.6584211 C32.4750226,17.0427616 31.1887382,15.7336606 29.6012384,15.7310526 L29.6012384,15.7310526 Z" id="Shape" fill="#FFFFFF"></path>
                    <path d="M22.1590402,44.91 C10.0777401,44.91 0.283911249,34.9424447 0.283911249,22.6468421 C0.283911249,10.3512395 10.0777401,0.383684211 22.1590402,0.383684211 C34.2403404,0.383684211 44.0341692,10.3512395 44.0341692,22.6468421 C44.0341692,34.9424447 34.2403404,44.91 22.1590402,44.91 L22.1590402,44.91 Z M22.1590402,3.76105263 C11.9079285,3.76105263 3.59776058,12.2186293 3.59776058,22.6515789 C3.59776058,33.0845285 11.9079285,41.5421053 22.1590402,41.5421053 C32.4101519,41.5421053 40.7203199,33.0845285 40.7203199,22.6515789 C40.7074982,12.2240393 32.4048363,3.77410175 22.1590402,3.76105263 L22.1590402,3.76105263 Z" id="Shape" fill="url(#linearGradient-1)"></path>
                </g>
            </g>
        </g>
    </g>
</svg>