<svg width="134" height="34" xmlns="http://www.w3.org/2000/svg"><g fill="none" fill-rule="evenodd"><path d="M54.519 13.582c.986 0 1.786.8 1.786 1.786v6.847c0 1.122.89 2.043 2.011 2.083h.072c1.123 0 2.044-.89 2.082-2.011v-5.133c0-1.973 1.6-3.572 3.573-3.572v8.495c0 3.08-2.403 5.698-5.48 5.79a5.627 5.627 0 01-4.046-1.528 5.633 5.633 0 01-4.045 1.534c-3.077-.093-5.48-2.711-5.48-5.79v-4.929c0-1.973 1.6-3.572 3.573-3.572v8.637c0 1.123.89 2.044 2.012 2.083h.066a2.085 2.085 0 002.093-2.015v-6.919c0-.985.798-1.784 1.783-1.786z" fill="#009BFF"/><path d="M112.029 13.602a7.145 7.145 0 017.676 6.826v4.174a3.271 3.271 0 01-3.272 3.271v-7.445h-.01a3.87 3.87 0 10-.584 2.356v4.288a7.145 7.145 0 11-3.813-13.478l.003.008z" fill="#000391"/><path d="M73.868 16.856a3.864 3.864 0 00-3.262 1.786h6.524a3.872 3.872 0 00-3.262-1.786zm3.766 4.763H70.1a3.875 3.875 0 005.104 2.74 9.676 9.676 0 013.34-.654h1.82a7.148 7.148 0 11.632-3.455l.015.017c0 .748-.605 1.354-1.353 1.354l-2.025-.002z" fill="#009BFF"/><path d="M125.069 7.032a2.68 2.68 0 11.002 5.36 2.68 2.68 0 01-.002-5.36zm1.786 6.55v10.716a3.571 3.571 0 01-3.571 3.575V17.154a3.571 3.571 0 013.571-3.572zM134 8.522v15.776a3.572 3.572 0 01-3.572 3.575V12.094c0-1.973 1.599-3.572 3.572-3.572z" fill="#000391"/><path d="M93.315 15.46l5.01-6a2.617 2.617 0 014.625 1.679v12.94a3.695 3.695 0 01-3.696 3.695h-.023V14.172l-5.915 7.059-5.937-7.035v13.576a3.695 3.695 0 01-3.697-3.694V11.123a2.6 2.6 0 014.594-1.672l5.039 6.009z" fill="#000391" fill-rule="nonzero"/><path d="M17.123 23.607L1.158 14.825A.785.785 0 000 15.491v14.431a3.393 3.393 0 003.393 3.393h27.45a3.393 3.393 0 003.394-3.393V15.39a.785.785 0 00-1.166-.665l-15.948 8.883z" fill="#000391"/><path d="M17.169 20.982l14.29-8.132a.785.785 0 00.132-1.266C28.266 8.637 22.489 3.637 19.404.868a3.393 3.393 0 00-4.486-.041c-3.226 2.793-8.925 7.907-12.3 10.861a.785.785 0 00.13 1.267l14.42 8.027z" fill="#009BFF"/></g></svg>